<svg width="26" height="26" viewBox="0 0 26 26" fill="none" xmlns="http://www.w3.org/2000/svg">
<path fill-rule="evenodd" clip-rule="evenodd" d="M26 19V7C25.998 5.14409 25.2599 3.36477 23.9476 2.05245C22.6352 0.740121 20.8559 0.00198528 19 0H7C5.14409 0.00198528 3.36477 0.740121 2.05245 2.05245C0.740121 3.36477 0.00198528 5.14409 0 7V19C0.00198528 20.8559 0.740121 22.6352 2.05245 23.9476C3.36477 25.2599 5.14409 25.998 7 26H19C20.8559 25.998 22.6352 25.2599 23.9476 23.9476C25.2599 22.6352 25.998 20.8559 26 19ZM18.2351 17.6809C19.3701 16.3964 19.9978 14.7398 20 13.0231C19.9988 12.0775 19.8076 11.1418 19.4377 10.2721C19.0678 9.40233 18.5269 8.61637 17.8473 7.96122C17.1678 7.30607 16.3635 6.79517 15.4826 6.4591C14.6017 6.12302 13.6624 5.96867 12.7207 6.00527C9.08334 6.1471 6.1393 9.11199 6.00468 12.759C5.94053 14.5204 6.53775 16.2418 7.67814 17.5825C8.81853 18.9231 10.419 19.7853 12.1627 19.9984C12.2004 20.0026 12.2387 19.9987 12.2748 19.987C12.311 19.9753 12.3443 19.9561 12.3725 19.9306C12.4007 19.905 12.4233 19.8738 12.4386 19.8389C12.4539 19.8041 12.4618 19.7663 12.4615 19.7282V14.644H10.8643C10.7251 14.6462 10.5903 14.5954 10.487 14.5017C10.3837 14.4081 10.3196 14.2787 10.3077 14.1395C10.3028 14.0656 10.3131 13.9915 10.3379 13.9217C10.3628 13.852 10.4017 13.7881 10.4522 13.7341C10.5027 13.6801 10.5637 13.637 10.6315 13.6077C10.6993 13.5783 10.7723 13.5632 10.8461 13.5634H12.4615V11.9425C12.4615 11.3693 12.6884 10.8196 13.0924 10.4143C13.4963 10.009 14.0441 9.78129 14.6154 9.78129H15.6741C15.8133 9.77907 15.9482 9.8299 16.0515 9.92353C16.1548 10.0172 16.2189 10.1466 16.2308 10.2858C16.2357 10.3597 16.2253 10.4338 16.2005 10.5036C16.1756 10.5733 16.1367 10.6372 16.0862 10.6912C16.0357 10.7452 15.9747 10.7883 15.9069 10.8176C15.8392 10.847 15.7661 10.8621 15.6923 10.8619H14.6154C14.3298 10.8619 14.0558 10.9757 13.8539 11.1784C13.6519 11.381 13.5384 11.6559 13.5384 11.9425V13.5634H15.137C15.276 13.5615 15.4105 13.6125 15.5135 13.7061C15.6165 13.7997 15.6804 13.929 15.6923 14.0679C15.6972 14.1418 15.6869 14.2159 15.662 14.2857C15.6372 14.3554 15.5983 14.4193 15.5478 14.4733C15.4973 14.5273 15.4362 14.5704 15.3685 14.5997C15.3007 14.6291 15.2277 14.6442 15.1538 14.644H13.5384V19.7269C13.5382 19.765 13.546 19.8028 13.5614 19.8378C13.5768 19.8727 13.5994 19.904 13.6277 19.9295C13.656 19.955 13.6894 19.9742 13.7256 19.9859C13.7619 19.9975 13.8002 20.0013 13.838 19.997C15.5362 19.7892 17.1001 18.9654 18.2351 17.6809Z" fill="white"/>
</svg>
