<svg width="156" height="44" viewBox="0 0 156 44" fill="none" xmlns="http://www.w3.org/2000/svg">
<path d="M154.985 21.6673C154.985 22.2094 154.951 22.7515 154.881 23.2936H141.932C142.002 24.3779 142.293 25.191 142.805 25.7331C143.34 26.2517 144.015 26.511 144.829 26.511C145.969 26.511 146.784 25.9924 147.272 24.9553H154.567C154.264 26.3224 153.671 27.548 152.787 28.6323C151.926 29.6929 150.832 30.5297 149.506 31.1425C148.18 31.7553 146.714 32.0617 145.108 32.0617C143.177 32.0617 141.455 31.6493 139.943 30.8243C138.454 29.9994 137.279 28.8208 136.418 27.2888C135.58 25.7567 135.161 23.9536 135.161 21.8794C135.161 19.8052 135.58 18.0139 136.418 16.5054C137.255 14.9733 138.419 13.7948 139.908 12.9699C141.42 12.1449 143.154 11.7324 145.108 11.7324C147.039 11.7324 148.75 12.1331 150.239 12.9345C151.728 13.7359 152.891 14.8908 153.729 16.3993C154.567 17.8843 154.985 19.6402 154.985 21.6673ZM148.005 19.9349C148.005 19.0863 147.726 18.4264 147.167 17.955C146.609 17.46 145.911 17.2125 145.073 17.2125C144.236 17.2125 143.549 17.4482 143.014 17.9196C142.479 18.3674 142.13 19.0392 141.967 19.9349H148.005Z" fill="white"/>
<path d="M127.507 15.4797C128.275 14.3483 129.205 13.4527 130.299 12.7927C131.393 12.1327 132.568 11.8027 133.824 11.8027V19.192H131.904C130.415 19.192 129.31 19.4866 128.589 20.0759C127.867 20.6651 127.507 21.6905 127.507 23.1518V31.8139H120.666V11.9795H127.507V15.4797Z" fill="white"/>
<path d="M117.424 21.9309C117.425 23.816 116.874 25.6589 115.841 27.2267C114.808 28.7945 113.339 30.0166 111.62 30.7384C109.901 31.4603 108.009 31.6494 106.185 31.2819C104.36 30.9144 102.683 30.0068 101.367 28.6739C100.052 27.341 99.1558 25.6427 98.7929 23.7939C98.43 21.945 98.6166 20.0286 99.329 18.2872C100.041 16.5457 101.247 15.0575 102.795 14.0106C104.342 12.9638 106.161 12.4055 108.022 12.4063C110.515 12.4073 112.906 13.4111 114.669 15.1971C116.432 16.983 117.423 19.405 117.424 21.9309Z" fill="url(#paint0_radial_1061_2)"/>
<path d="M114.76 17.6439C114.761 16.7349 114.656 15.8289 114.445 14.9453C113.889 13.9702 113.258 13.5414 111.989 13.3145C112.221 14.2393 112.03 15.0294 112.03 16.0291C112.03 22.4434 106.96 27.8151 100.629 27.8151C100.747 28.1167 100.923 28.3916 101.147 28.6239C101.37 28.8562 101.637 29.0413 101.932 29.1685C102.386 29.2249 102.843 29.253 103.301 29.2525C106.339 29.2505 109.253 28.0268 111.401 25.8503C113.55 23.6737 114.758 20.7222 114.76 17.6439Z" fill="#EE484C"/>
<path d="M114.76 17.6439C114.761 16.7349 114.656 15.8289 114.445 14.9453C113.889 13.9702 113.258 13.5414 111.989 13.3145C112.221 14.2393 112.03 15.0294 112.03 16.0291C112.03 22.4434 106.96 27.8151 100.629 27.8151C100.747 28.1167 100.923 28.3916 101.147 28.6239C101.37 28.8562 101.637 29.0413 101.932 29.1685C102.386 29.2249 102.843 29.253 103.301 29.2525C106.339 29.2505 109.253 28.0268 111.401 25.8503C113.55 23.6737 114.758 20.7222 114.76 17.6439Z" fill="url(#paint1_radial_1061_2)"/>
<mask id="mask0_1061_2" style="mask-type:luminance" maskUnits="userSpaceOnUse" x="98" y="12" width="20" height="20">
<path d="M114.455 14.9843L114.446 14.9457C113.896 13.9813 113.278 13.5517 112.048 13.3205C110.132 12.4003 107.965 12.1633 105.899 12.6479C103.833 13.1325 101.989 14.3102 100.666 15.99C99.3441 17.6699 98.621 19.7531 98.6143 21.9017C98.6076 24.0502 99.3179 26.1381 100.63 27.8262C100.866 28.401 101.305 28.8666 101.86 29.1335C103.721 30.7691 106.14 31.5999 108.599 31.4475C111.057 31.295 113.359 30.1714 115.008 28.3181C116.658 26.4649 117.524 24.0299 117.421 21.5366C117.317 19.0432 116.252 16.6906 114.455 14.9843Z" fill="white"/>
</mask>
<g mask="url(#mask0_1061_2)">
<path d="M101.009 28.7225C100.843 28.7225 100.675 28.7197 100.503 28.7141L100.511 28.6552C100.677 28.6608 100.843 28.6636 101.008 28.6636C105.041 28.6636 108.941 26.7721 111.298 23.6448C113.522 20.7025 114.103 17.0372 112.949 13.3215L113.008 13.3047C114.169 17.0372 113.572 20.7193 111.348 23.6875C108.983 26.8219 105.058 28.7225 101.009 28.7225Z" fill="black"/>
<path d="M108.8 22.93C109.798 21.6527 110.514 20.1735 110.899 18.5921C111.331 16.9111 111.489 14.9521 111.389 12.7832L111.215 12.7916C111.629 21.2907 107.904 26.0237 99.8223 27.2678L99.8471 27.4357C101.855 27.1247 103.632 26.595 105.1 25.8552C106.529 25.1655 107.792 24.167 108.8 22.93Z" fill="white"/>
<path d="M100.678 28.242L100.694 28.4099C100.788 28.4043 100.882 28.3959 100.976 28.3847L100.96 28.2168C100.866 28.2224 100.772 28.2308 100.678 28.242Z" fill="white"/>
<path d="M107.97 25.7793C107.821 25.8802 107.663 25.9892 107.506 26.082L107.597 26.2332C107.755 26.1323 107.912 26.0233 108.062 25.9222L107.97 25.7793Z" fill="white"/>
<path d="M112.676 16.138H112.85C112.85 15.9446 112.842 15.7513 112.833 15.5664L112.659 15.5748C112.67 15.7598 112.676 15.9475 112.676 16.138Z" fill="white"/>
<path d="M106.543 26.6387C106.378 26.7226 106.212 26.8066 106.037 26.8824L106.112 27.0421C106.278 26.9581 106.452 26.8742 106.618 26.7902L106.543 26.6387Z" fill="white"/>
<path d="M111.821 21.3999L111.664 21.3242C111.592 21.4964 111.512 21.6645 111.423 21.828L111.58 21.9119C111.664 21.744 111.744 21.5733 111.821 21.3999Z" fill="white"/>
<path d="M111.298 22.0801C111.207 22.2399 111.115 22.4079 111.016 22.5592L111.165 22.6517C111.256 22.492 111.356 22.3238 111.447 22.1642L111.298 22.0801Z" fill="white"/>
<path d="M107.264 26.2324C107.107 26.3249 106.949 26.4174 106.783 26.5099L106.866 26.6612C107.032 26.5715 107.195 26.4762 107.356 26.3753L107.264 26.2324Z" fill="white"/>
<path d="M105.854 27.1493L105.788 26.998C105.622 27.0654 105.448 27.1409 105.273 27.2079L105.332 27.3676C105.509 27.3005 105.683 27.2278 105.854 27.1493Z" fill="white"/>
<path d="M112.136 20.6097L111.978 20.5508L111.779 21.072L111.937 21.1393C112.009 20.9599 112.075 20.7834 112.136 20.6097Z" fill="white"/>
<path d="M112.393 19.7945L112.227 19.7441C112.177 19.9291 112.127 20.1056 112.069 20.2822L112.227 20.3326C112.288 20.1533 112.343 19.9739 112.393 19.7945Z" fill="white"/>
<path d="M112.85 16.4141H112.676C112.676 16.6047 112.67 16.7924 112.659 16.9773L112.833 16.9857C112.839 16.8005 112.845 16.61 112.85 16.4141Z" fill="white"/>
<path d="M104.485 27.4873L104.543 27.6552C104.721 27.5992 104.898 27.5376 105.075 27.4702L105.016 27.3105C104.842 27.3695 104.668 27.4366 104.485 27.4873Z" fill="white"/>
<path d="M109.847 24.123C109.722 24.2575 109.598 24.392 109.465 24.5266L109.581 24.6526C109.719 24.518 109.849 24.3807 109.971 24.2406L109.847 24.123Z" fill="white"/>
<path d="M112.592 17.8191L112.766 17.8359C112.783 17.6509 112.799 17.4631 112.816 17.2727L112.642 17.2559C112.633 17.4492 112.617 17.6337 112.592 17.8191Z" fill="white"/>
<path d="M112.477 18.6505L112.642 18.6841C112.675 18.4991 112.703 18.3114 112.725 18.1209L112.559 18.0957C112.535 18.2807 112.51 18.4655 112.477 18.6505Z" fill="white"/>
<path d="M112.576 14.4472L112.741 14.4304C112.725 14.2454 112.7 14.0606 112.667 13.8672L112.501 13.8924C112.526 14.0771 112.551 14.2708 112.576 14.4472Z" fill="white"/>
<path d="M102.062 28.0735L102.087 28.2415C102.27 28.2163 102.46 28.1826 102.635 28.1406L102.61 27.9727C102.428 28.0119 102.245 28.0456 102.062 28.0735Z" fill="white"/>
<path d="M102.875 27.9248L102.916 28.0927L103.464 27.9667L103.423 27.7988L102.875 27.9248Z" fill="white"/>
<path d="M112.651 15.2884L112.816 15.28C112.808 15.095 112.791 14.9022 112.775 14.7168L112.601 14.7336L112.651 15.2884Z" fill="white"/>
<path d="M112.593 18.9613L112.427 18.9277C112.386 19.1127 112.344 19.2976 112.303 19.4742L112.468 19.5162C112.513 19.3313 112.554 19.1463 112.593 18.9613Z" fill="white"/>
<path d="M101.788 28.1172C101.606 28.1452 101.421 28.1676 101.232 28.1845L101.249 28.3611C101.44 28.3359 101.622 28.3107 101.805 28.2854L101.788 28.1172Z" fill="white"/>
<path d="M108.635 25.2754C108.494 25.3847 108.345 25.5024 108.195 25.6112L108.295 25.7541C108.45 25.6422 108.599 25.5273 108.743 25.4094L108.635 25.2754Z" fill="white"/>
<path d="M111.007 22.8958L110.866 22.7949C110.767 22.9518 110.661 23.1058 110.551 23.2567L110.684 23.3576C110.8 23.2064 110.908 23.0524 111.007 22.8958Z" fill="white"/>
<path d="M110.386 23.4844C110.269 23.6301 110.153 23.773 110.037 23.9131L110.161 24.0308C110.286 23.8879 110.402 23.737 110.518 23.5853L110.386 23.4844Z" fill="white"/>
<path d="M103.688 27.7297L103.73 27.8895C103.913 27.8446 104.092 27.7942 104.269 27.7382L104.22 27.5703C104.048 27.6261 103.871 27.6792 103.688 27.7297Z" fill="white"/>
<path d="M109.265 24.7207C109.132 24.8496 108.994 24.9729 108.851 25.0905L108.958 25.225C109.102 25.1017 109.243 24.9758 109.382 24.8472L109.265 24.7207Z" fill="white"/>
<path d="M112.627 13.5828C112.616 13.4875 112.602 13.3922 112.585 13.2969L112.411 13.3221L112.461 13.6079L112.627 13.5828Z" fill="white"/>
<path d="M101.847 28.9004C101.753 28.906 101.659 28.9088 101.564 28.9088V29.0767H101.847V28.9004Z" fill="white"/>
<path d="M114.302 18.0123L114.127 18.0039C114.119 18.1973 114.103 18.3907 114.086 18.5839L114.252 18.6007C114.277 18.4075 114.285 18.2057 114.302 18.0123Z" fill="white"/>
<path d="M112.559 23.5701C112.667 23.4022 112.766 23.2343 112.866 23.0664L112.717 22.9824C112.625 23.1503 112.518 23.3183 112.418 23.4785L112.559 23.5701Z" fill="white"/>
<path d="M114.135 16.8449L114.301 16.8365C114.293 16.6431 114.285 16.4413 114.268 16.248L114.094 16.2648C114.111 16.4579 114.127 16.6516 114.135 16.8449Z" fill="white"/>
<path d="M114.219 18.8943L114.054 18.8691C114.029 19.0625 114.004 19.2559 113.971 19.4492L114.136 19.4743C114.17 19.2811 114.195 19.0877 114.219 18.8943Z" fill="white"/>
<path d="M114.07 15.9699L114.236 15.9531C114.219 15.7597 114.194 15.5663 114.169 15.373L113.995 15.3982C114.023 15.5888 114.048 15.7794 114.07 15.9699Z" fill="white"/>
<path d="M114.144 17.3643C114.144 17.482 114.141 17.5969 114.136 17.7089L114.31 17.7173V17.1289H114.144L114.144 17.3643Z" fill="white"/>
<path d="M113.787 20.2996L113.953 20.3415C114.003 20.1481 114.044 19.9548 114.086 19.7699L113.911 19.7363C113.878 19.9213 113.837 20.1141 113.787 20.2996Z" fill="white"/>
<path d="M113.265 22.2827L113.116 22.207C113.033 22.3836 112.941 22.5601 112.858 22.7283L113.008 22.8122C113.099 22.6358 113.182 22.4589 113.265 22.2827Z" fill="white"/>
<path d="M113.605 21.4671L113.447 21.4082C113.381 21.5875 113.309 21.7669 113.231 21.9462L113.389 22.0135C113.464 21.837 113.539 21.652 113.605 21.4671Z" fill="white"/>
<path d="M113.953 15.1033L114.118 15.0781C114.091 14.8875 114.055 14.6941 114.01 14.498L113.845 14.5316C113.883 14.7221 113.919 14.9127 113.953 15.1033Z" fill="white"/>
<path d="M113.879 20.6265L113.713 20.5762C113.664 20.7668 113.605 20.9517 113.539 21.131L113.705 21.1899C113.763 21.0049 113.821 20.8115 113.879 20.6265Z" fill="white"/>
<path d="M110.667 25.7978L110.559 25.6719C110.418 25.7978 110.269 25.9238 110.119 26.0497L110.227 26.1842C110.376 26.0586 110.526 25.9324 110.667 25.7978Z" fill="white"/>
<path d="M111.298 25.1821L111.173 25.0645C111.04 25.2044 110.905 25.3417 110.767 25.4764L110.883 25.6024C111.024 25.468 111.165 25.325 111.298 25.1821Z" fill="white"/>
<path d="M108.534 27.3349L108.452 27.1836C108.286 27.2788 108.117 27.3685 107.945 27.4525L108.02 27.6038C108.197 27.5196 108.368 27.4299 108.534 27.3349Z" fill="white"/>
<path d="M107.763 27.7378L107.689 27.5781C107.514 27.6621 107.34 27.7378 107.166 27.8135L107.232 27.9732C107.407 27.8976 107.589 27.8219 107.763 27.7378Z" fill="white"/>
<path d="M109.281 26.8714L109.19 26.7285C109.029 26.835 108.866 26.9386 108.7 27.0396L108.791 27.1825C108.957 27.09 109.123 26.9804 109.281 26.8714Z" fill="white"/>
<path d="M106.958 28.0835L106.899 27.9238C106.716 27.9911 106.534 28.0583 106.36 28.1256L106.41 28.2853C106.593 28.2265 106.784 28.1592 106.958 28.0835Z" fill="white"/>
<path d="M103.591 28.95L103.566 28.7734C103.375 28.7986 103.184 28.8238 102.993 28.8406L103.01 29.0085C103.2 28.992 103.4 28.9752 103.591 28.95Z" fill="white"/>
<path d="M104.443 28.8066L104.418 28.6387L103.846 28.7396L103.871 28.9075C104.061 28.874 104.26 28.8486 104.443 28.8066Z" fill="white"/>
<path d="M102.718 29.0312L102.71 28.8633C102.519 28.8717 102.328 28.8885 102.129 28.8885L102.137 29.0651C102.331 29.0595 102.524 29.0483 102.718 29.0315V29.0312Z" fill="white"/>
<path d="M106.137 28.3765L106.087 28.2168C105.905 28.2757 105.722 28.3261 105.531 28.3765L105.581 28.5444C105.764 28.4943 105.954 28.4354 106.137 28.3765Z" fill="white"/>
<path d="M111.879 24.5194L111.746 24.4102C111.624 24.5615 111.5 24.71 111.373 24.8557L111.497 24.965C111.63 24.8221 111.754 24.6707 111.879 24.5194Z" fill="white"/>
<path d="M112.401 23.8118L112.26 23.7109C112.152 23.8706 112.036 24.0304 111.92 24.1817L112.061 24.291C112.177 24.1307 112.293 23.9715 112.401 23.8118Z" fill="white"/>
<path d="M105.299 28.621L105.257 28.4531C105.075 28.5035 104.884 28.5456 104.701 28.5791L104.734 28.7557C104.925 28.7137 105.115 28.663 105.299 28.621Z" fill="white"/>
<path d="M109.522 26.7141C109.688 26.6048 109.846 26.4871 109.995 26.3694L109.895 26.2266C109.746 26.3442 109.588 26.4619 109.431 26.5712L109.522 26.7141Z" fill="white"/>
<path d="M113.953 14.2039L113.886 13.918L113.721 13.9599L113.787 14.2458L113.953 14.2039Z" fill="white"/>
<path d="M109.572 23.3248C111.58 20.7943 112.369 17.3645 111.896 13.1191L111.73 13.1443C112.195 17.3308 111.423 20.7188 109.44 23.2154C107.49 25.6702 104.345 27.1833 100.338 27.612L100.354 27.7799C102.354 27.57 104.146 27.0906 105.682 26.3592C107.191 25.6622 108.522 24.624 109.573 23.3244L109.572 23.3248Z" fill="white"/>
<path d="M111.763 25.7885C113.022 24.4904 113.956 22.9047 114.484 21.1649C115.082 19.223 115.181 17.1046 114.791 14.8516L114.626 14.8851C115.356 19.0885 114.294 22.9219 111.638 25.6708C109.05 28.3435 105.166 29.7312 101.748 29.2015L101.723 29.3695C102.219 29.4483 102.722 29.4876 103.225 29.4871C106.286 29.4874 109.506 28.1169 111.763 25.7885Z" fill="white"/>
<path d="M115.19 15.1953L115.024 15.2289C115.754 19.4408 114.693 23.2656 112.037 26.0146C109.448 28.6872 105.565 30.0749 102.146 29.5453L102.121 29.7132C102.618 29.7906 103.12 29.83 103.623 29.8309C106.685 29.8309 109.904 28.4606 112.153 26.132C113.418 24.8366 114.354 23.2503 114.883 21.5087C115.48 19.5667 115.58 17.4482 115.19 15.1953Z" fill="white"/>
</g>
<path d="M76.1602 21.8794C76.1602 19.8288 76.579 18.0375 77.4166 16.5054C78.2543 14.9733 79.4177 13.7948 80.9068 12.9699C82.4193 12.1449 84.1411 11.7324 86.0723 11.7324C88.562 11.7324 90.6561 12.4277 92.3547 13.8184C94.0533 15.1855 95.1469 17.1064 95.6355 19.5813H88.3759C87.957 18.2849 87.1427 17.6368 85.9327 17.6368C85.0718 17.6368 84.3854 18.0021 83.8735 18.7328C83.3849 19.4399 83.1406 20.4888 83.1406 21.8794C83.1406 23.2701 83.3849 24.3307 83.8735 25.0614C84.3854 25.7921 85.0718 26.1574 85.9327 26.1574C87.1659 26.1574 87.9803 25.5092 88.3759 24.2129H95.6355C95.1469 26.6642 94.0533 28.5851 92.3547 29.9758C90.6561 31.3664 88.562 32.0617 86.0723 32.0617C84.1411 32.0617 82.4193 31.6493 80.9068 30.8243C79.4177 29.9994 78.2543 28.8208 77.4166 27.2888C76.579 25.7567 76.1602 23.9536 76.1602 21.8794Z" fill="white"/>
<path d="M64.9183 32.0619C62.0563 32.0619 59.7062 31.3784 57.868 30.0113C56.0299 28.6207 55.041 26.6408 54.9014 24.0716H62.1959C62.2657 24.9437 62.5216 25.5801 62.9637 25.9808C63.4058 26.3815 63.9759 26.5818 64.6739 26.5818C65.3022 26.5818 65.8141 26.4286 66.2096 26.1222C66.6284 25.7922 66.8379 25.3444 66.8379 24.7787C66.8379 24.048 66.5005 23.4824 65.8257 23.0817C65.1509 22.681 64.0573 22.2331 62.5449 21.7382C60.9394 21.196 59.6364 20.6775 58.6359 20.1825C57.6586 19.664 56.7977 18.9215 56.0531 17.9551C55.3318 16.9652 54.9712 15.6806 54.9712 14.1014C54.9712 12.4986 55.3667 11.1316 56.1578 10.0002C56.949 8.84524 58.0425 7.97314 59.4386 7.38388C60.8347 6.79463 62.4169 6.5 64.1853 6.5C67.0473 6.5 69.3275 7.18354 71.0261 8.55061C72.7479 9.89411 73.667 11.7915 73.7834 14.2428H66.3492C66.326 13.4886 66.0933 12.9229 65.6512 12.5458C65.2324 12.1686 64.6856 11.9801 64.0108 11.9801C63.4989 11.9801 63.0801 12.1333 62.7543 12.4397C62.4286 12.7461 62.2657 13.1822 62.2657 13.7478C62.2657 14.2193 62.4402 14.6317 62.7892 14.9853C63.1615 15.3153 63.6152 15.6099 64.1504 15.8692C64.6856 16.1049 65.4767 16.4113 66.5237 16.7884C68.0827 17.3305 69.3624 17.8726 70.363 18.4148C71.3868 18.9333 72.2593 19.6758 72.9806 20.6421C73.7252 21.5849 74.0975 22.787 74.0975 24.2484C74.0975 25.7333 73.7252 27.065 72.9806 28.2435C72.2593 29.4221 71.2006 30.3531 69.8045 31.0366C68.4317 31.7201 66.803 32.0619 64.9183 32.0619Z" fill="white"/>
<path d="M48.3529 10.1418C47.1429 10.1418 46.1657 9.8118 45.4211 9.15183C44.6998 8.4683 44.3391 7.61977 44.3391 6.60625C44.3391 5.56916 44.6998 4.70884 45.4211 4.02531C46.1657 3.34177 47.1429 3 48.3529 3C49.5395 3 50.4935 3.34177 51.2148 4.02531C51.9594 4.70884 52.3317 5.56916 52.3317 6.60625C52.3317 7.61977 51.9594 8.4683 51.2148 9.15183C50.4935 9.8118 49.5395 10.1418 48.3529 10.1418ZM51.7732 33.7592C51.7732 38.7796 49.2836 41.2898 44.3042 41.2898H41.8262V35.3855H43.2921C43.8738 35.3855 44.2926 35.2677 44.5485 35.0319C44.8045 34.7962 44.9325 34.4073 44.9325 33.8652V11.9803H51.7732V33.7592Z" fill="url(#paint2_linear_1061_2)"/>
<path d="M42.133 21.6673C42.133 22.2094 42.098 22.7515 42.0282 23.2936H29.0796C29.1494 24.3779 29.4402 25.191 29.9521 25.7331C30.4873 26.2517 31.1621 26.511 31.9765 26.511C33.1166 26.511 33.931 25.9924 34.4196 24.9553H41.7141C41.4116 26.3224 40.8183 27.548 39.9341 28.6323C39.0732 29.6929 37.9796 30.5297 36.6533 31.1425C35.3271 31.7553 33.8612 32.0617 32.2557 32.0617C30.3244 32.0617 28.6026 31.6493 27.0902 30.8243C25.601 29.9994 24.426 28.8208 23.5651 27.2888C22.7274 25.7567 22.3086 23.9536 22.3086 21.8794C22.3086 19.8052 22.7274 18.0139 23.5651 16.5054C24.4027 14.9733 25.5661 13.7948 27.0553 12.9699C28.5677 12.1449 30.3012 11.7324 32.2557 11.7324C34.1869 11.7324 35.8971 12.1331 37.3863 12.9345C38.8754 13.7359 40.0388 14.8908 40.8765 16.3993C41.7141 17.8843 42.133 19.6402 42.133 21.6673ZM35.1525 19.9349C35.1525 19.0863 34.8733 18.4264 34.3149 17.955C33.7565 17.46 33.0584 17.2125 32.2208 17.2125C31.3831 17.2125 30.6967 17.4482 30.1616 17.9196C29.6264 18.3674 29.2774 19.0392 29.1145 19.9349H35.1525Z" fill="url(#paint3_linear_1061_2)"/>
<path d="M20.8942 6.88867V12.4041H14.3326V31.8142H7.49178V12.4041H1V6.88867H20.8942Z" fill="url(#paint4_linear_1061_2)"/>
<path d="M3.39551 36.6215L41.8904 35.3844L41.8904 37.8223L3.39551 36.6215Z" fill="#AB0D14"/>
<path d="M11.6084 40.0881L42.1477 38.8874L42.1477 41.2889L11.6084 40.0881Z" fill="#AB0D14"/>
<defs>
<radialGradient id="paint0_radial_1061_2" cx="0" cy="0" r="1" gradientUnits="userSpaceOnUse" gradientTransform="translate(104.312 18.4859) scale(14.7107 14.9037)">
<stop offset="0.151" stop-color="#FA232B"/>
<stop offset="1" stop-color="#8C000B"/>
</radialGradient>
<radialGradient id="paint1_radial_1061_2" cx="0" cy="0" r="1" gradientUnits="userSpaceOnUse" gradientTransform="translate(109.592 21.2835) scale(12.1892 12.352)">
<stop offset="0.151" stop-color="#FA232B"/>
<stop offset="1" stop-color="#8C000B"/>
</radialGradient>
<linearGradient id="paint2_linear_1061_2" x1="47.0789" y1="3" x2="47.0789" y2="41.2898" gradientUnits="userSpaceOnUse">
<stop stop-color="#E11C24"/>
<stop offset="1" stop-color="#A60B12"/>
</linearGradient>
<linearGradient id="paint3_linear_1061_2" x1="32.2208" y1="11.7324" x2="32.2208" y2="32.0617" gradientUnits="userSpaceOnUse">
<stop stop-color="#E11C24"/>
<stop offset="1" stop-color="#A60B12"/>
</linearGradient>
<linearGradient id="paint4_linear_1061_2" x1="10.9471" y1="6.88867" x2="10.9471" y2="31.8142" gradientUnits="userSpaceOnUse">
<stop stop-color="#E11C24"/>
<stop offset="1" stop-color="#A60B12"/>
</linearGradient>
</defs>
</svg>
