<svg width="26" height="26" viewBox="0 0 26 26" fill="none" xmlns="http://www.w3.org/2000/svg">
<path fill-rule="evenodd" clip-rule="evenodd" d="M2 0H24C24.5304 0 25.0391 0.210714 25.4142 0.585786C25.7893 0.960859 26 1.46957 26 2V24C26 24.5304 25.7893 25.0391 25.4142 25.4142C25.0391 25.7893 24.5304 26 24 26H2C1.46957 26 0.960859 25.7893 0.585786 25.4142C0.210714 25.0391 0 24.5304 0 24V2C0 1.46957 0.210714 0.960859 0.585786 0.585786C0.960859 0.210714 1.46957 0 2 0ZM16.4508 7.00511C16.1603 7.00511 15.8842 7.13139 15.6943 7.35112L13.4757 9.91744L11.598 7.40185C11.4093 7.14895 11.1122 7 10.7966 7H7C6.62069 7 6.27404 7.2146 6.10491 7.55411C5.93578 7.89363 5.9733 8.2996 6.20178 8.60237L10.2535 13.9715L6.48157 18.3471C6.22625 18.6433 6.16699 19.0611 6.32989 19.4166C6.49279 19.7721 6.84795 20 7.23899 20H9.07832C9.36905 20 9.64538 19.8735 9.83534 19.6534L12.3438 16.747L14.499 19.6024C14.6879 19.8528 14.9835 20 15.2971 20H19C19.3783 20 19.7242 19.7865 19.8939 19.4484C20.0635 19.1102 20.0277 18.7053 19.8015 18.4021L15.5532 12.7072L19.0472 8.65844C19.3027 8.36232 19.3621 7.9444 19.1993 7.58878C19.0365 7.23315 18.6812 7.00511 18.2901 7.00511H16.4508ZM13.4185 11.5126L14.0882 10.738L16.4508 8.00511H16.9692H18.2901L17.4271 9.00511L14.2716 12.6617L18.254 18L19 19H17.7524H15.2971L13.0122 15.9726L12.396 15.1561L11.7276 15.9305L9.07832 19H8.55926H7.23899L8.10103 18L11.5378 14.0132L7.75464 9L7 8H8.25279H10.7966L12.806 10.6921L13.4185 11.5126ZM10.245 9.06218L16.0789 16.8826L16.4577 17.3905L16.8249 17.8826H15.8054L9.90536 10.0622L9.54494 9.58444L9.15092 9.06218H10.245Z" fill="white"/>
</svg>
