<svg width="26" height="26" viewBox="0 0 26 26" fill="none" xmlns="http://www.w3.org/2000/svg">
<path fill-rule="evenodd" clip-rule="evenodd" d="M26 19V7C25.998 5.14409 25.2599 3.36477 23.9476 2.05245C22.6352 0.740121 20.8559 0.00198528 19 0H7C5.14409 0.00198528 3.36477 0.740121 2.05245 2.05245C0.740121 3.36477 0.00198528 5.14409 0 7V19C0.00198528 20.8559 0.740121 22.6352 2.05245 23.9476C3.36477 25.2599 5.14409 25.998 7 26H19C20.8559 25.998 22.6352 25.2599 23.9476 23.9476C25.2599 22.6352 25.998 20.8559 26 19ZM20.2188 8.33448C20.3987 8.5289 20.5277 8.76138 20.595 9.01273C20.78 9.69318 21 10.9368 21 13C21 15.0632 20.78 16.3055 20.595 16.9873C20.5278 17.2388 20.3989 17.4714 20.2189 17.6659C20.039 17.8605 19.8131 18.0113 19.56 18.1061C17.2164 18.97 13.5429 19 13.0471 19H12.9529C12.4571 19 8.78571 18.97 6.44 18.1061C6.18689 18.0113 5.96103 17.8605 5.78107 17.6659C5.60111 17.4714 5.4722 17.2388 5.405 16.9873C5.22 16.3068 5 15.0632 5 13C5 10.9368 5.22 9.69318 5.405 9.01273C5.4723 8.76138 5.60125 8.5289 5.78121 8.33448C5.96117 8.14006 6.18697 7.98927 6.44 7.89455C8.86934 6.99891 12.7246 6.99993 12.9943 7L13 7L13.0057 7C13.2754 6.99993 17.1307 6.99891 19.56 7.89455C19.813 7.98927 20.0388 8.14006 20.2188 8.33448ZM12.0157 15.4089L15.4443 13.227C15.4835 13.2022 15.5156 13.1684 15.5378 13.1288C15.5601 13.0892 15.5717 13.0449 15.5717 13C15.5717 12.9551 15.5601 12.9108 15.5378 12.8712C15.5156 12.8316 15.4835 12.7979 15.4443 12.773L12.0157 10.5911C11.9727 10.5637 11.9226 10.548 11.871 10.5456C11.8193 10.5432 11.7679 10.5543 11.7223 10.5776C11.6767 10.6009 11.6386 10.6356 11.612 10.678C11.5854 10.7203 11.5714 10.7688 11.5714 10.8182V15.1818C11.5714 15.2312 11.5854 15.2797 11.612 15.3221C11.6386 15.3644 11.6767 15.3991 11.7223 15.4224C11.7679 15.4457 11.8193 15.4568 11.871 15.4544C11.9226 15.452 11.9727 15.4363 12.0157 15.4089Z" fill="white"/>
</svg>
