<svg xmlns="http://www.w3.org/2000/svg" width="15" height="14" fill="none"><path fill="#fff" d="M8.635.24a.4.4 0 0 0-.128.116L3.009 7.577.952 8.805a.24.24 0 0 0-.076.328l2.238 3.751a.24.24 0 0 0 .325.089l1.276-.762a1.751 1.751 0 0 0 2.601 1.1c.695-.415 1-1.236.792-1.976l6.356-1a.5.5 0 0 0 .163-.058.48.48 0 0 0 .152-.656L9.287.416A.48.48 0 0 0 8.635.24M6.779 12.412a.7.7 0 0 1-1.05-.704L7.05 11.5a.703.703 0 0 1-.27.912m6.66-2.981-8.106 1.275-.201.031-1.53.913L2.195 9.29l1.529-.913.123-.161 4.97-6.53z"/></svg>