<svg xmlns="http://www.w3.org/2000/svg" width="70" height="70" fill="none"><path fill="#666" d="m52.804 46.58 1.37 1.373-1.036 1.037-1.694-1.692a10 10 0 0 0-1.19.887l14.07 14.07q.495-.57.887-1.19l-1.694-1.693 1.04-1.038 1.372 1.372c1.578-3.649.885-8.045-2.098-11.027-2.983-2.983-7.378-3.675-11.027-2.098m1.37 3.448 1.038-1.038 2.075 2.078-1.036 1.039zm3.114 3.115 1.04-1.035 2.074 2.075-1.036 1.036zm5.193 5.191-2.078-2.076 1.04-1.038 2.074 2.076zM48.33 50.413l1.695 1.695-1.04 1.035-1.37-1.371c-1.58 3.65-.887 8.046 2.096 11.028 2.983 2.981 7.378 3.674 11.028 2.096l-1.37-1.37 1.035-1.04L62.1 64.18q.62-.392 1.19-.887l-14.072-14.07q-.493.57-.886 1.191M59.369 61.45l-1.038 1.037-2.076-2.075 1.035-1.038zm-3.114-3.115-1.04 1.038-2.074-2.076 1.036-1.038zm-3.115-3.115-1.04 1.038-2.074-2.075 1.036-1.039z"/><path fill="#666" stroke="#666" stroke-width=".2" d="M52.343 23.704v-.001a2.77 2.77 0 0 1 .812-2.012L67.883 6.96l.041-.042-.015-.056-.12-.438a5.94 5.94 0 0 0-1.535-2.673 5.96 5.96 0 0 0-2.67-1.538l-.44-.123-.056-.015-.042.04-14.733 14.735c-.592.592-1.444.838-2.276.755l-2.207-2.207a2.185 2.185 0 0 0-3.094 0L3.026 53.11a3.16 3.16 0 0 0-.914 1.93c-.1.878.093 2.007.81 3.445.783 1.565 2.095 3.306 3.694 4.905.53.529 1.718 1.657 3.162 2.654 1.44.994 3.151 1.87 4.724 1.87 1.202 0 1.964-.507 2.393-.935l37.709-37.71a2.18 2.18 0 0 0 0-3.093l-2.236-2.238-.008-.06c-.009-.06-.016-.114-.017-.173ZM5.139 54.232l37.143-37.144 4.853 4.85L14.88 54.194c-.36.361-.945.73-1.573 1s-1.284.432-1.788.396c-.753-.057-2.387-.405-3.841-.742a139 139 0 0 1-2.491-.602zm9.279 4.249c-.037-.502.126-1.158.396-1.786.269-.628.638-1.212.998-1.573l-.07-.07.07.07c4.04-4.041 12.12-12.123 19.192-19.194l9.218-9.217 2.857-2.857.783-.783.204-.204 4.85 4.853-37.143 37.146-.012-.05-.148-.591c-.122-.496-.287-1.174-.454-1.9-.337-1.454-.685-3.088-.741-3.844Zm35.145-40.382L62.374 5.288c.502.231.975.542 1.389.955.413.413.721.885.953 1.387l-12.81 12.812a4.5 4.5 0 0 0-1.132 1.9l-3.112-3.112a4.5 4.5 0 0 0 1.9-1.131l-.07-.07z"/></svg>