<svg xmlns="http://www.w3.org/2000/svg" width="70" height="67" fill="none"><path fill="#666" d="M18.726 42.142a1.368 1.368 0 1 0-1.37-2.369 1.368 1.368 0 0 0 1.37 2.368"/><path fill="#666" d="m13.123 51.578 6.885 11.926c1.486 2.576 4.828 3.53 7.47 2.002a5.466 5.466 0 0 0 2.002-7.47l-4.102-7.105 3.552-2.051a1.367 1.367 0 0 0 .5-1.868l-1.777-3.08c.212-.04 1.606-.314 26.187-5.136 3.039-.165 4.86-3.488 3.324-6.145l-4.543-7.87 2.903-4.398c.285-.433.303-.989.044-1.437l-2.735-4.736a1.37 1.37 0 0 0-1.266-.681l-5.26.315-5.044-8.737a4.07 4.07 0 0 0-3.5-2.05h-.053a4.07 4.07 0 0 0-3.453 1.89L16.397 27.7 4.786 34.404c-4.567 2.636-6.149 8.494-3.503 13.073 2.417 4.187 7.513 5.834 11.84 4.102m13.99 7.825a2.733 2.733 0 0 1-1.002 3.735 2.74 2.74 0 0 1-3.735-1L15.54 50.294l4.736-2.734zM24.01 48.562l-1.367-2.368 2.368-1.367 1.367 2.368zm26.877-32.253 1.89 3.272-1.686 2.552-3.256-5.641zM36.543 6.447c.367-.6.95-.663 1.185-.656.234.003.816.075 1.166.683l15.902 27.544a1.367 1.367 0 0 1-1.15 2.05c-.186.004-.272.038-.75.127L36.075 7.059c.353-.454.398-.498.468-.612m-2.288 2.93L50.06 36.751 26.208 41.43l-7.253-12.562zM3.651 46.109a6.8 6.8 0 0 1-.918-3.411c0-2.438 1.31-4.71 3.42-5.927l10.656-6.152 6.836 11.84-10.656 6.153a6.844 6.844 0 0 1-9.338-2.503"/><path fill="#666" d="M14.49 43.008a1.367 1.367 0 0 0-1.868-.5l-2.368 1.367a1.37 1.37 0 0 1-1.867-.5 1.367 1.367 0 0 0-2.368 1.367 4.107 4.107 0 0 0 5.603 1.501l2.368-1.367a1.367 1.367 0 0 0 .5-1.868M67.968 5.981l-7.618 4.24a1.368 1.368 0 0 0 1.33 2.389l7.617-4.24a1.367 1.367 0 1 0-1.33-2.389M67.17 20.14l-5.283-1.414a1.367 1.367 0 1 0-.708 2.64l5.283 1.416a1.367 1.367 0 1 0 .707-2.641M53.895 1.014l-1.417 5.283a1.368 1.368 0 0 0 2.641.708l1.416-5.283a1.367 1.367 0 0 0-2.64-.708"/></svg>