<svg xmlns="http://www.w3.org/2000/svg" width="20" height="20" fill="none"><path fill="#666" fill-rule="evenodd" d="M15.402 15.402A7.639 7.639 0 1 0 4.598 4.599a7.639 7.639 0 0 0 10.804 10.803m1.08 1.08A9.167 9.167 0 1 0 3.518 3.518a9.167 9.167 0 0 0 12.964 12.964" clip-rule="evenodd"/><path fill="#666" fill-rule="evenodd" d="M16.82 4.26 4.6 16.482l-1.08-1.08L15.74 3.178zM4.059 12.7a.764.764 0 0 1 0-1.08l1.08-1.08a.764.764 0 0 1 1.08 1.08L5.14 12.7a.764.764 0 0 1-1.08 0M7.57 16.212a.764.764 0 0 1 0-1.08l1.08-1.08a.764.764 0 0 1 1.08 1.08l-1.08 1.08a.764.764 0 0 1-1.08 0M7.3 9.46a.764.764 0 0 1 0-1.08L8.38 7.3a.764.764 0 1 1 1.08 1.08L8.38 9.46a.764.764 0 0 1-1.08 0M10.81 12.97a.764.764 0 0 1 0-1.08l1.08-1.08a.764.764 0 1 1 1.081 1.08l-1.08 1.08a.764.764 0 0 1-1.08 0M10.54 6.219a.764.764 0 0 1 0-1.08l1.08-1.08a.764.764 0 1 1 1.08 1.08l-1.08 1.08a.764.764 0 0 1-1.08 0M14.051 9.73a.764.764 0 0 1 0-1.08l1.08-1.08a.764.764 0 1 1 1.08 1.08l-1.08 1.08a.764.764 0 0 1-1.08 0" clip-rule="evenodd"/></svg>