<svg xmlns="http://www.w3.org/2000/svg" width="50" height="50"><path fill="#B22222" fill-rule="evenodd" d="M45.281 10.376a25.18 25.18 0 0 0-2.603-3.054 25.18 25.18 0 0 0-3.054-2.603L4.72 39.624a25.18 25.18 0 0 0 2.603 3.054 25.18 25.18 0 0 0 3.054 2.603L45.28 10.376Zm1.127 1.701c5.814 9.615 4.57 22.3-3.73 30.6-8.3 8.301-20.986 9.545-30.6 3.73l34.33-34.33Zm-8.485-8.485c-9.615-5.814-22.3-4.57-30.6 3.73-8.301 8.3-9.545 20.986-3.73 30.6l34.33-34.33Zm-6.553-.519a.993.993 0 0 1 1.408.007 1 1 0 0 1 .007 1.407L29.943 7.33a.993.993 0 0 1-1.407-.007 1 1 0 0 1-.007-1.407l2.841-2.842Zm-6.363 6.364a.993.993 0 0 1 1.407.007 1 1 0 0 1 .007 1.407l-2.842 2.842a.993.993 0 0 1-1.407-.007 1 1 0 0 1-.007-1.407l2.842-2.842Zm-6.364 6.364a.993.993 0 0 1 1.407.007 1 1 0 0 1 .007 1.407l-2.842 2.842a.993.993 0 0 1-1.407-.007 1 1 0 0 1-.007-1.407l2.842-2.842Zm-6.364 6.364a.993.993 0 0 1 1.407.007 1 1 0 0 1 .007 1.407l-2.842 2.842a.993.993 0 0 1-1.407-.007 1 1 0 0 1-.007-1.407l2.842-2.842ZM5.915 28.53a.993.993 0 0 1 1.407.007 1 1 0 0 1 .007 1.407l-2.842 2.842a.993.993 0 0 1-1.407-.007 1 1 0 0 1-.007-1.408l2.842-2.841Zm39.598-11.314a.993.993 0 0 1 1.407.007 1 1 0 0 1 .007 1.408l-2.842 2.841a.993.993 0 0 1-1.407-.007 1 1 0 0 1-.007-1.407l2.842-2.842Zm-6.364 6.364a.993.993 0 0 1 1.407.007 1 1 0 0 1 .007 1.407l-2.842 2.842a.993.993 0 0 1-1.407-.007 1 1 0 0 1-.007-1.407l2.842-2.842Zm-6.364 6.364a.993.993 0 0 1 1.407.007 1 1 0 0 1 .007 1.407L31.357 34.2a.993.993 0 0 1-1.407-.007 1 1 0 0 1-.007-1.407l2.842-2.842Zm-6.364 6.364a.993.993 0 0 1 1.407.007 1 1 0 0 1 .007 1.407l-2.842 2.842a.993.993 0 0 1-1.407-.007 1 1 0 0 1-.007-1.407l2.842-2.842Zm-6.364 6.364a.993.993 0 0 1 1.407.007 1 1 0 0 1 .007 1.407l-2.841 2.842a.993.993 0 0 1-1.408-.007 1 1 0 0 1-.007-1.407l2.842-2.842Z"/></svg>