<svg width="400" height="81" viewBox="0 0 400 81" fill="none" xmlns="http://www.w3.org/2000/svg">
<path d="M385.484 37.7404C381.865 35.2727 378.109 35.6566 374.215 38.8919C370.98 41.6338 368.814 45.2804 367.717 49.8319C366.511 55.0414 367.443 58.9623 370.514 61.5944C370.898 61.9234 371.309 62.225 371.748 62.4992C373.941 63.7056 376.189 63.9798 378.493 63.3218C380.851 62.6637 382.88 61.2106 384.579 58.9622C386.334 56.7139 387.705 54.3285 388.692 51.806C389.679 49.2287 389.926 46.6239 389.433 43.9918C388.939 41.3048 387.623 39.221 385.484 37.7404ZM393.71 38.3984C395.3 39.8242 396.534 41.5515 397.411 43.5805C398.289 45.5546 398.782 47.5836 398.892 49.6674C399.056 51.7512 398.865 53.8624 398.316 56.0011C397.823 58.1397 397.055 60.1412 396.013 62.0057C394.971 63.8702 393.655 65.5427 392.065 67.0233C390.529 68.449 388.829 69.5184 386.965 70.2312C385.1 70.999 383.017 71.3006 380.713 71.136C378.465 70.9715 376.162 70.2587 373.804 68.9974C370.733 67.3523 367.717 65.2685 364.756 62.746C362.398 60.717 360.643 58.4413 359.492 55.9188C358.34 53.3415 357.792 50.8464 357.847 48.4336C357.956 46.0207 358.422 43.6079 359.245 41.1951C360.122 38.7823 361.356 36.6985 362.946 34.9437C364.591 33.1889 366.374 31.7083 368.293 30.5019C370.212 29.2406 372.269 28.5826 374.462 28.5278C376.71 28.4729 378.876 28.939 380.96 29.9261C386.279 32.7228 390.529 35.5469 393.71 38.3984Z" fill="black"/>
<path d="M320.529 12.6528V35.5198C325.629 30.6393 330.043 28.3361 333.772 28.6103C335.527 28.72 338.598 30.9134 342.985 35.1907C347.426 39.4132 349.784 42.2921 350.059 43.8275C350.278 45.2533 350.388 54.3562 350.388 71.1363L340.188 68.8332C340.517 50.0241 340.38 40.0712 339.777 38.9745C338.735 37.0552 337.035 36.5068 334.677 37.3294C332.374 38.0971 329.961 39.5228 327.438 41.6066C324.971 43.6356 322.668 45.9388 320.529 48.5161V71.1363L310.247 68.8332V10.3496L320.529 12.6528Z" fill="black"/>
<path d="M274.019 12.6528V43.9921L289.565 29.3506L299.025 31.6537L283.972 45.8017L301.328 67.4348L295.57 71.2186L279.53 49.9967L274.019 55.1788V71.1363L263.737 68.8332V10.3496L274.019 12.6528Z" fill="black"/>
<path d="M213.238 40.3098C214.511 34.1987 219.876 24.393 231.844 23.7228C235.217 23.5339 239.115 25.0752 243.594 26.6256" stroke="black" stroke-linecap="round"/>
<path d="M164.512 38.5654C166.223 32.562 172.281 23.1689 184.266 23.3638C187.644 23.4188 191.421 25.2373 195.776 27.1068" stroke="black" stroke-linecap="round"/>
<path d="M226.662 52.3833L245.334 39.6338C241.386 37.1113 237.518 34.991 234.542 35.4094C231.06 35.899 228.995 38.2354 227.514 41.0321C226.034 43.774 226.433 48.384 226.662 52.3833ZM228.554 60.2799C230.089 62.1443 231.817 63.2959 233.736 63.7346C235.655 64.1733 237.657 63.9265 239.741 62.9943C241.879 62.0072 243.662 61.0476 245.087 60.1154C246.513 59.1283 248.186 57.8396 250.105 56.2494L251.75 57.8945C252.792 59.046 253.834 60.1976 254.876 61.3492L256.521 62.9943C251.75 66.5039 247.719 68.8344 244.429 69.986C241.139 71.1924 237.876 71.1924 234.641 69.986C229.925 68.1764 225.483 64.9958 221.315 60.4444C218.848 57.7025 217.422 54.4671 217.038 50.7382C216.654 46.9545 217.12 43.4449 218.437 40.2096C219.807 36.9742 221.891 34.2323 224.688 31.984C227.539 29.6809 230.638 28.5293 233.983 28.5293C236.176 28.5293 239.412 29.9551 243.689 32.8066C248.021 35.6033 251.613 38.3451 254.464 41.0321C254.41 41.1966 252.216 42.8966 247.884 46.1319C243.607 49.3125 239.302 52.4656 234.97 55.5913L228.554 60.2799Z" fill="black"/>
<path d="M238.699 41.3329C238.699 43.4962 236.945 45.2499 234.782 45.2499C232.619 45.2499 230.865 43.4962 230.865 41.3329C230.865 39.1697 232.619 37.416 234.782 37.416C236.945 37.416 238.699 39.1697 238.699 41.3329Z" fill="#B40911"/>
<path d="M236.741 42.3132C236.741 42.854 236.302 43.2924 235.761 43.2924C235.221 43.2924 234.782 42.854 234.782 42.3132C234.782 41.7724 235.221 41.334 235.761 41.334C236.302 41.334 236.741 41.7724 236.741 42.3132Z" fill="white"/>
<path d="M194.803 43.1103C194.803 45.2735 193.049 47.0272 190.886 47.0272C188.722 47.0272 186.969 45.2735 186.969 43.1103C186.969 40.947 188.722 39.1934 190.886 39.1934C193.049 39.1934 194.803 40.947 194.803 43.1103Z" fill="#B40911"/>
<path d="M192.844 44.0906C192.844 44.6314 192.406 45.0698 191.865 45.0698C191.324 45.0698 190.886 44.6314 190.886 44.0906C190.886 43.5497 191.324 43.1113 191.865 43.1113C192.406 43.1113 192.844 43.5497 192.844 44.0906Z" fill="white"/>
<path d="M181.674 64.5559C186.006 66.7494 191.243 65.68 197.385 61.3479V38.2342C195.794 37.3019 193.573 36.6713 190.722 36.3423C188.474 36.123 186.28 37.2745 184.141 39.797C182.003 42.2647 180.385 45.1436 179.288 48.4338C178.192 51.7241 177.78 54.9869 178.055 58.2222C178.384 61.4028 179.59 63.514 181.674 64.5559ZM197.385 10.3496L207.666 12.6528C207.995 49.6677 207.995 68.3396 207.666 68.6687C207.392 68.7235 205.967 69.0251 203.389 69.5735C200.867 70.1767 199.249 70.5331 198.536 70.6428C197.823 70.7525 196.343 70.917 194.094 71.1363C191.901 71.3557 190.146 71.3557 188.83 71.1363C187.569 70.917 185.978 70.5331 184.059 69.9847C182.14 69.4912 180.303 68.7509 178.548 67.7638C175.422 66.0639 173.01 63.9801 171.31 61.5124C169.61 59.0448 168.705 56.5223 168.595 53.9449C168.486 51.3676 168.787 48.7629 169.5 46.1307C170.213 43.4437 171.337 41.0034 172.872 38.81C174.463 36.5617 176.135 34.5875 177.89 32.8876C179.7 31.1876 181.592 29.9812 183.566 29.2683C185.54 28.5006 187.295 28.3635 188.83 28.8571C189.543 29.0764 190.283 29.4054 191.051 29.8441C191.873 30.228 192.531 30.5844 193.025 30.9135C193.573 31.2425 194.314 31.736 195.246 32.394C196.233 33.0521 196.946 33.5182 197.385 33.7924V10.3496Z" fill="black"/>
<path d="M160.028 35.0275L157.067 39.3047C156.245 39.0306 155.285 38.7015 154.188 38.3177C153.091 37.879 152.242 37.5774 151.638 37.4129C151.035 37.1935 150.377 36.9742 149.664 36.7548C148.951 36.5355 148.348 36.3984 147.855 36.3436C147.416 36.2339 147.005 36.179 146.621 36.179C143.056 36.3436 140.04 38.6467 137.573 43.0885C135.215 47.3658 134.31 51.6705 134.858 56.0026C135.352 60.3347 137.271 62.7475 140.616 63.2411C144.51 63.7894 149.719 61.5411 156.245 56.4961L157.807 58.3057C158.904 59.5121 159.974 60.746 161.015 62.0072L162.578 63.8168C160.44 65.4071 158.548 66.6958 156.903 67.6828C155.312 68.6699 153.667 69.465 151.967 70.0683C150.267 70.7263 148.595 71.0279 146.95 70.9731C145.359 70.9731 143.714 70.644 142.014 69.986C137.298 68.1764 132.857 64.9958 128.689 60.4444C126.221 57.7025 124.85 54.4671 124.576 50.7382C124.357 46.9545 125.015 43.4449 126.55 40.2096C128.141 36.9742 130.471 34.2323 133.542 31.984C136.613 29.6809 139.958 28.5293 143.577 28.5293C145.277 28.5293 150.761 30.6954 160.028 35.0275Z" fill="url(#paint0_linear_780_6)"/>
<g filter="url(#filter0_d_780_6)">
<path d="M114.429 31.7367V71.1371L104.147 68.8339V29.4336L114.429 31.7367Z" fill="url(#paint1_linear_780_6)"/>
</g>
<path d="M73.0417 31.7358V37.8227C77.0448 31.5164 80.4447 28.3633 83.2414 28.3633C84.6123 28.3633 86.9154 29.0762 90.1508 30.5019C93.3862 31.8728 96.1006 33.2986 98.2941 34.7792L92.6185 43.0047C89.2186 40.4822 86.2574 39.1113 83.7349 38.892C81.2672 38.6178 79.2931 39.1113 77.8125 40.3726C76.3319 41.579 74.7416 43.5531 73.0417 46.295V71.1361L62.7598 68.8329V29.4326L73.0417 31.7358Z" fill="url(#paint2_linear_780_6)"/>
<path d="M51.4373 19.2686L47.2293 25.3694C46.0604 24.9783 44.6967 24.509 43.1382 23.9615C41.5797 23.3358 40.3718 22.9056 39.5147 22.671C38.6575 22.3581 37.7224 22.0452 36.7094 21.7324C35.6963 21.4195 34.8391 21.224 34.1378 21.1458C33.5144 20.9893 32.93 20.9111 32.3845 20.9111C27.3193 21.1458 23.0334 24.4308 19.5268 30.7663C16.176 36.8671 14.8902 43.0071 15.6695 49.1862C16.3708 55.3652 19.0982 58.8067 23.8516 59.5106C29.3844 60.2928 36.7873 57.086 46.0604 49.8901L48.2813 52.4712C49.8398 54.192 51.3593 55.9518 52.8399 57.7508L55.0608 60.3319C52.0217 62.6002 49.3333 64.4382 46.9955 65.8461C44.7357 67.254 42.3979 68.3881 39.9822 69.2485C37.5665 70.1871 35.1898 70.6173 32.852 70.5391C30.5922 70.5391 28.2544 70.0698 25.8387 69.1312C19.1372 66.5501 12.8252 62.0135 6.90285 55.5216C3.39621 51.6108 1.44807 46.9961 1.05844 41.6774C0.746742 36.2805 1.68185 31.2747 3.86376 26.66C6.1236 22.0452 9.43543 18.1344 13.7993 14.9276C18.1631 11.6425 22.9165 10 28.0596 10C30.4753 10 38.2679 13.0895 51.4373 19.2686Z" fill="url(#paint3_linear_780_6)"/>
<path d="M117.876 18.1323C117.876 19.7417 117.4 21.3153 116.506 22.6539C115.613 23.9925 114.342 25.0359 112.856 25.6522C111.369 26.2686 109.733 26.4301 108.155 26.1163C106.576 25.8025 105.126 25.0276 103.988 23.8896C102.85 22.7515 102.076 21.3015 101.762 19.7229C101.448 18.1443 101.609 16.5081 102.225 15.0212C102.841 13.5343 103.885 12.2636 105.223 11.3698C106.561 10.4761 108.135 9.99934 109.744 10C111.9 10.0009 113.968 10.8579 115.493 12.3828C117.018 13.9077 117.875 15.9757 117.876 18.1323Z" fill="url(#paint4_radial_780_6)"/>
<path d="M115.574 14.4739C115.575 13.6977 115.483 12.9242 115.301 12.1698C114.82 11.3372 114.275 10.9711 113.177 10.7773C113.377 11.5669 113.212 12.2416 113.212 13.0951C113.212 18.5717 108.827 23.1582 103.352 23.1582C103.454 23.4157 103.606 23.6504 103.799 23.8487C103.993 24.0471 104.223 24.2051 104.478 24.3138C104.871 24.3619 105.267 24.3859 105.662 24.3855C108.29 24.3837 110.81 23.339 112.669 21.4806C114.527 19.6222 115.572 17.1021 115.574 14.4739Z" fill="#EE484C"/>
<path d="M115.572 14.4739C115.573 13.6977 115.481 12.9242 115.299 12.1698C114.818 11.3372 114.273 10.9711 113.175 10.7773C113.376 11.5669 113.21 12.2416 113.21 13.0951C113.21 18.5717 108.825 23.1582 103.35 23.1582C103.452 23.4157 103.604 23.6504 103.797 23.8487C103.991 24.0471 104.222 24.2051 104.476 24.3138C104.869 24.3619 105.265 24.3859 105.661 24.3855C108.288 24.3837 110.808 23.339 112.667 21.4806C114.525 19.6222 115.57 17.1021 115.572 14.4739Z" fill="url(#paint5_radial_780_6)"/>
<mask id="mask0_780_6" style="mask-type:luminance" maskUnits="userSpaceOnUse" x="101" y="10" width="17" height="17">
<path d="M115.309 12.2084L115.302 12.1754C114.826 11.352 114.291 10.9852 113.228 10.7878C111.57 10.0022 109.696 9.7998 107.909 10.2136C106.122 10.6273 104.527 11.6329 103.383 13.0671C102.24 14.5014 101.614 16.2801 101.608 18.1146C101.603 19.949 102.217 21.7316 103.352 23.173C103.556 23.6638 103.935 24.0613 104.416 24.2892C106.025 25.6857 108.118 26.3951 110.244 26.2649C112.37 26.1347 114.361 25.1754 115.788 23.593C117.215 22.0107 117.964 19.9317 117.874 17.8028C117.784 15.674 116.863 13.6653 115.309 12.2084Z" fill="white"/>
</mask>
<g mask="url(#mask0_780_6)">
<path d="M103.683 23.9373C103.54 23.9373 103.394 23.935 103.245 23.9302L103.252 23.8799C103.396 23.8847 103.539 23.887 103.682 23.887C107.171 23.887 110.543 22.2721 112.582 19.602C114.505 17.0898 115.008 13.9603 114.01 10.7878L114.06 10.7734C115.065 13.9603 114.548 17.1041 112.625 19.6384C110.58 22.3146 107.185 23.9373 103.683 23.9373Z" fill="white"/>
<path d="M110.422 18.9935C111.285 17.903 111.904 16.64 112.238 15.2898C112.611 13.8546 112.748 12.1819 112.662 10.3301L112.511 10.3372C112.869 17.5939 109.647 21.635 102.657 22.6972L102.679 22.8406C104.416 22.575 105.952 22.1228 107.222 21.4911C108.458 20.9022 109.55 20.0497 110.422 18.9935Z" fill="white"/>
<path d="M103.396 23.5293L103.41 23.6727C103.491 23.6679 103.573 23.6607 103.654 23.6512L103.64 23.5078C103.558 23.5126 103.477 23.5198 103.396 23.5293Z" fill="white"/>
<path d="M109.705 21.4277C109.575 21.5139 109.439 21.6069 109.303 21.6862L109.382 21.8153C109.518 21.7292 109.654 21.6361 109.784 21.5497L109.705 21.4277Z" fill="white"/>
<path d="M113.774 13.1931H113.925C113.925 13.028 113.918 12.8629 113.911 12.7051L113.76 12.7122C113.769 12.8702 113.774 13.0305 113.774 13.1931Z" fill="white"/>
<path d="M108.469 22.1582C108.326 22.2299 108.182 22.3016 108.031 22.3663L108.096 22.5026C108.239 22.431 108.39 22.3593 108.534 22.2876L108.469 22.1582Z" fill="white"/>
<path d="M113.035 17.6896L112.899 17.625C112.837 17.772 112.767 17.9156 112.69 18.0551L112.827 18.1268C112.899 17.9834 112.968 17.8377 113.035 17.6896Z" fill="white"/>
<path d="M112.583 18.2695C112.504 18.406 112.425 18.5495 112.339 18.6786L112.468 18.7576C112.547 18.6213 112.633 18.4777 112.712 18.3413L112.583 18.2695Z" fill="white"/>
<path d="M109.094 21.8145C108.958 21.8934 108.821 21.9724 108.678 22.0514L108.749 22.1805C108.893 22.104 109.034 22.0226 109.173 21.9364L109.094 21.8145Z" fill="white"/>
<path d="M107.875 22.5959L107.817 22.4668C107.674 22.5243 107.523 22.5888 107.372 22.646L107.422 22.7823C107.576 22.7251 107.726 22.6629 107.875 22.5959Z" fill="white"/>
<path d="M113.305 17.0132L113.168 16.9629L112.996 17.4079L113.132 17.4654C113.195 17.3122 113.252 17.1615 113.305 17.0132Z" fill="white"/>
<path d="M113.531 16.3184L113.387 16.2754C113.344 16.4333 113.301 16.584 113.251 16.7348L113.387 16.7778C113.44 16.6247 113.488 16.4716 113.531 16.3184Z" fill="white"/>
<path d="M113.925 13.4277H113.774C113.774 13.5905 113.769 13.7508 113.76 13.9086L113.911 13.9158C113.915 13.7577 113.92 13.595 113.925 13.4277Z" fill="white"/>
<path d="M106.69 22.8853L106.741 23.0286C106.894 22.9809 107.047 22.9282 107.2 22.8707L107.15 22.7344C106.999 22.7847 106.848 22.842 106.69 22.8853Z" fill="white"/>
<path d="M111.325 20.0117C111.218 20.1265 111.11 20.2413 110.995 20.3563L111.096 20.4638C111.215 20.349 111.327 20.2317 111.433 20.1121L111.325 20.0117Z" fill="white"/>
<path d="M113.703 14.6293L113.854 14.6437C113.868 14.4857 113.883 14.3254 113.897 14.1628L113.746 14.1484C113.739 14.3136 113.725 14.471 113.703 14.6293Z" fill="white"/>
<path d="M113.602 15.339L113.745 15.3676C113.774 15.2097 113.797 15.0494 113.817 14.8867L113.673 14.8652C113.652 15.0232 113.63 15.181 113.602 15.339Z" fill="white"/>
<path d="M113.689 11.7511L113.832 11.7367C113.818 11.5788 113.796 11.421 113.767 11.2559L113.624 11.2774C113.646 11.4351 113.667 11.6004 113.689 11.7511Z" fill="white"/>
<path d="M104.595 23.383L104.616 23.5264C104.774 23.5049 104.939 23.4761 105.09 23.4402L105.068 23.2969C104.911 23.3304 104.753 23.3591 104.595 23.383Z" fill="white"/>
<path d="M105.298 23.256L105.334 23.3993L105.807 23.2918L105.772 23.1484L105.298 23.256Z" fill="white"/>
<path d="M113.753 12.4666L113.897 12.4594C113.889 12.3015 113.875 12.1368 113.861 11.9785L113.71 11.9929L113.753 12.4666Z" fill="white"/>
<path d="M113.7 15.6068L113.557 15.5781C113.521 15.7361 113.485 15.8939 113.449 16.0447L113.593 16.0805C113.631 15.9226 113.667 15.7647 113.7 15.6068Z" fill="white"/>
<path d="M104.359 23.4238C104.201 23.4477 104.041 23.4669 103.878 23.4813L103.892 23.6321C104.057 23.6106 104.215 23.5891 104.373 23.5674L104.359 23.4238Z" fill="white"/>
<path d="M110.279 20.9941C110.157 21.0875 110.028 21.1879 109.898 21.2809L109.985 21.4029C110.119 21.3073 110.248 21.2092 110.372 21.1086L110.279 20.9941Z" fill="white"/>
<path d="M112.33 18.965L112.208 18.8789C112.122 19.0129 112.031 19.1443 111.936 19.2732L112.05 19.3593C112.151 19.2302 112.244 19.0988 112.33 18.965Z" fill="white"/>
<path d="M111.794 19.4668C111.693 19.5912 111.593 19.7132 111.492 19.8329L111.6 19.9333C111.707 19.8114 111.808 19.6824 111.908 19.5529L111.794 19.4668Z" fill="white"/>
<path d="M106.002 23.0931L106.038 23.2296C106.196 23.1912 106.351 23.1482 106.504 23.1004L106.461 22.957C106.313 23.0047 106.16 23.05 106.002 23.0931Z" fill="white"/>
<path d="M110.825 20.5234C110.71 20.6335 110.591 20.7388 110.467 20.8392L110.56 20.954C110.684 20.8487 110.806 20.7412 110.926 20.6314L110.825 20.5234Z" fill="white"/>
<path d="M113.73 11.0097C113.72 10.9284 113.708 10.847 113.694 10.7656L113.543 10.7871L113.586 11.0312L113.73 11.0097Z" fill="white"/>
<path d="M104.408 24.0879C104.327 24.0927 104.245 24.0951 104.164 24.0951V24.2384H104.408V24.0879Z" fill="white"/>
<path d="M115.182 14.7923L115.031 14.7852C115.024 14.9503 115.009 15.1154 114.995 15.2804L115.138 15.2947C115.16 15.1297 115.167 14.9574 115.182 14.7923Z" fill="white"/>
<path d="M113.675 19.5409C113.768 19.3975 113.854 19.2541 113.94 19.1107L113.811 19.0391C113.732 19.1824 113.639 19.3258 113.553 19.4626L113.675 19.5409Z" fill="white"/>
<path d="M115.036 13.7967L115.179 13.7895C115.172 13.6244 115.165 13.4521 115.151 13.2871L115 13.3014C115.015 13.4663 115.029 13.6317 115.036 13.7967Z" fill="white"/>
<path d="M115.109 15.5508L114.965 15.5293C114.944 15.6944 114.922 15.8595 114.894 16.0245L115.037 16.046C115.066 15.881 115.087 15.7159 115.109 15.5508Z" fill="white"/>
<path d="M114.98 13.0506L115.123 13.0362C115.109 12.8711 115.087 12.706 115.066 12.541L114.915 12.5625C114.939 12.7252 114.96 12.8879 114.98 13.0506Z" fill="white"/>
<path d="M115.044 14.242C115.044 14.3425 115.042 14.4406 115.037 14.5362L115.188 14.5434V14.041H115.045L115.044 14.242Z" fill="white"/>
<path d="M114.735 16.7465L114.879 16.7824C114.922 16.6172 114.958 16.4521 114.994 16.2943L114.843 16.2656C114.814 16.4236 114.778 16.5882 114.735 16.7465Z" fill="white"/>
<path d="M114.283 18.4435L114.154 18.3789C114.082 18.5297 114.003 18.6803 113.932 18.8239L114.061 18.8956C114.14 18.745 114.211 18.594 114.283 18.4435Z" fill="white"/>
<path d="M114.576 17.7398L114.44 17.6895C114.382 17.8425 114.32 17.9957 114.253 18.1488L114.389 18.2063C114.454 18.0555 114.519 17.8976 114.576 17.7398Z" fill="white"/>
<path d="M114.88 12.3077L115.024 12.2862C115 12.1235 114.969 11.9584 114.93 11.791L114.787 11.8197C114.821 11.9823 114.852 12.145 114.88 12.3077Z" fill="white"/>
<path d="M114.816 17.0332L114.672 16.9902C114.629 17.153 114.579 17.3109 114.521 17.4639L114.665 17.5142C114.715 17.3563 114.765 17.1912 114.816 17.0332Z" fill="white"/>
<path d="M112.037 21.4415L111.944 21.334C111.822 21.4415 111.693 21.549 111.563 21.6566L111.657 21.7714C111.786 21.6642 111.915 21.5564 112.037 21.4415Z" fill="white"/>
<path d="M112.581 20.9188L112.474 20.8184C112.359 20.9378 112.242 21.0551 112.122 21.1701L112.223 21.2776C112.344 21.1629 112.466 21.0408 112.581 20.9188Z" fill="white"/>
<path d="M110.191 22.7502L110.119 22.6211C109.976 22.7024 109.83 22.779 109.682 22.8507L109.746 22.9799C109.899 22.908 110.048 22.8314 110.191 22.7502Z" fill="white"/>
<path d="M109.523 23.1012L109.459 22.9648C109.308 23.0365 109.158 23.1012 109.007 23.1658L109.064 23.3021C109.215 23.2376 109.373 23.173 109.523 23.1012Z" fill="white"/>
<path d="M110.839 22.3603L110.76 22.2383C110.622 22.3292 110.48 22.4177 110.337 22.5039L110.416 22.6259C110.559 22.5469 110.703 22.4533 110.839 22.3603Z" fill="white"/>
<path d="M108.829 23.3922L108.778 23.2559C108.62 23.3133 108.463 23.3707 108.312 23.4281L108.356 23.5645C108.513 23.5143 108.679 23.4568 108.829 23.3922Z" fill="white"/>
<path d="M105.916 24.1332L105.895 23.9824C105.729 24.0039 105.564 24.0254 105.399 24.0398L105.414 24.1831C105.578 24.169 105.751 24.1547 105.916 24.1332Z" fill="white"/>
<path d="M106.655 24.0106L106.634 23.8672L106.139 23.9533L106.16 24.0967C106.325 24.0681 106.497 24.0464 106.655 24.0106Z" fill="white"/>
<path d="M105.161 24.2059L105.154 24.0625C104.989 24.0697 104.824 24.084 104.651 24.084L104.659 24.2348C104.826 24.23 104.993 24.2204 105.161 24.2061V24.2059Z" fill="white"/>
<path d="M108.118 23.6441L108.075 23.5078C107.917 23.5581 107.759 23.6011 107.594 23.6441L107.637 23.7875C107.795 23.7447 107.96 23.6944 108.118 23.6441Z" fill="white"/>
<path d="M113.084 20.3531L112.969 20.2598C112.864 20.389 112.756 20.5158 112.646 20.6402L112.754 20.7335C112.868 20.6115 112.976 20.4822 113.084 20.3531Z" fill="white"/>
<path d="M113.537 19.7463L113.415 19.6602C113.322 19.7965 113.222 19.9329 113.121 20.0621L113.243 20.1554C113.344 20.0186 113.444 19.8826 113.537 19.7463Z" fill="white"/>
<path d="M107.394 23.8484L107.358 23.7051C107.2 23.7481 107.035 23.7841 106.877 23.8126L106.906 23.9634C107.071 23.9275 107.235 23.8843 107.394 23.8484Z" fill="white"/>
<path d="M111.046 22.2248C111.189 22.1315 111.326 22.0311 111.455 21.9306L111.369 21.8086C111.24 21.9091 111.103 22.0096 110.967 22.1029L111.046 22.2248Z" fill="white"/>
<path d="M114.881 11.541L114.823 11.2969L114.68 11.3327L114.737 11.5768L114.881 11.541Z" fill="white"/>
<path d="M111.089 19.3309C112.826 17.1703 113.508 14.2419 113.099 10.6172L112.956 10.6387C113.357 14.2131 112.69 17.1058 110.975 19.2375C109.288 21.3334 106.568 22.6253 103.103 22.9914L103.117 23.1347C104.847 22.9555 106.397 22.5462 107.724 21.9217C109.03 21.3266 110.181 20.4402 111.09 19.3306L111.089 19.3309Z" fill="white"/>
<path d="M112.986 21.4319C114.076 20.3235 114.883 18.9696 115.34 17.4842C115.857 15.8261 115.943 14.0174 115.606 12.0938L115.463 12.1224C116.094 15.7113 115.176 18.9843 112.879 21.3314C110.64 23.6133 107.281 24.7982 104.324 24.346L104.303 24.4893C104.732 24.5566 105.167 24.5902 105.602 24.5898C108.25 24.59 111.034 23.4199 112.986 21.4319Z" fill="white"/>
<path d="M115.948 12.3887L115.804 12.4173C116.436 16.0135 115.518 19.2792 113.221 21.6263C110.982 23.9083 107.623 25.0931 104.666 24.6409L104.645 24.7842C105.074 24.8503 105.509 24.8839 105.944 24.8847C108.592 24.8847 111.376 23.7147 113.321 21.7265C114.415 20.6205 115.225 19.2662 115.682 17.7791C116.199 16.121 116.285 14.3122 115.948 12.3887Z" fill="white"/>
</g>
<defs>
<filter id="filter0_d_780_6" x="101.147" y="28.4336" width="16.2822" height="47.7031" filterUnits="userSpaceOnUse" color-interpolation-filters="sRGB">
<feFlood flood-opacity="0" result="BackgroundImageFix"/>
<feColorMatrix in="SourceAlpha" type="matrix" values="0 0 0 0 0 0 0 0 0 0 0 0 0 0 0 0 0 0 127 0" result="hardAlpha"/>
<feOffset dy="2"/>
<feGaussianBlur stdDeviation="1.5"/>
<feComposite in2="hardAlpha" operator="out"/>
<feColorMatrix type="matrix" values="0 0 0 0 0 0 0 0 0 0 0 0 0 0 0 0 0 0 0.65 0"/>
<feBlend mode="normal" in2="BackgroundImageFix" result="effect1_dropShadow_780_6"/>
<feBlend mode="normal" in="SourceGraphic" in2="effect1_dropShadow_780_6" result="shape"/>
</filter>
<linearGradient id="paint0_linear_780_6" x1="143.557" y1="28.5293" x2="143.557" y2="70.9794" gradientUnits="userSpaceOnUse">
<stop stop-color="#FF2F38"/>
<stop offset="1" stop-color="#A9040B"/>
</linearGradient>
<linearGradient id="paint1_linear_780_6" x1="109" y1="27" x2="109.288" y2="71.1371" gradientUnits="userSpaceOnUse">
<stop stop-color="#FFCCCC"/>
<stop offset="1" stop-color="#D80000"/>
</linearGradient>
<linearGradient id="paint2_linear_780_6" x1="80.5269" y1="28.3633" x2="80.5269" y2="71.1361" gradientUnits="userSpaceOnUse">
<stop stop-color="#FF2F38"/>
<stop offset="1" stop-color="#A9040B"/>
</linearGradient>
<linearGradient id="paint3_linear_780_6" x1="28.0304" y1="10" x2="28.0304" y2="70.5481" gradientUnits="userSpaceOnUse">
<stop stop-color="#FF2F38"/>
<stop offset="1" stop-color="#A9040B"/>
</linearGradient>
<radialGradient id="paint4_radial_780_6" cx="0" cy="0" r="1" gradientUnits="userSpaceOnUse" gradientTransform="translate(106.535 15.1909) scale(12.7233 12.725)">
<stop offset="0.151" stop-color="#FA232B"/>
<stop offset="1" stop-color="#8C000B"/>
</radialGradient>
<radialGradient id="paint5_radial_780_6" cx="0" cy="0" r="1" gradientUnits="userSpaceOnUse" gradientTransform="translate(111.101 17.5814) scale(10.5424 10.5463)">
<stop offset="0.151" stop-color="#FA232B"/>
<stop offset="1" stop-color="#8C000B"/>
</radialGradient>
</defs>
</svg>
