<svg width="21" height="20" fill="none" xmlns="http://www.w3.org/2000/svg"><g clip-path="url(#a)"><path d="m15.587 13.309.392.392-.296.296-.484-.483c-.12.075-.233.16-.34.253l4.02 4.02c.094-.109.178-.222.253-.34l-.484-.483.297-.297.392.392a2.852 2.852 0 0 0-3.75-3.75Zm.392.985.296-.297.593.594-.296.296-.593-.593Zm.89.89.297-.296.592.593-.296.296-.593-.593Zm1.483 1.483-.593-.593.296-.297.593.593-.296.297ZM14.309 14.404l.484.484-.297.296-.392-.392a2.853 2.853 0 0 0 .6 3.15 2.853 2.853 0 0 0 3.15.6l-.392-.392.297-.297.483.484c.119-.075.232-.16.34-.253l-4.02-4.02a2.887 2.887 0 0 0-.253.34Zm3.153 3.153-.296.296-.593-.593.296-.296.593.593Zm-.89-.89-.296.296-.593-.593.296-.296.594.593Zm-.89-.89-.297.296-.592-.592.296-.297.593.593Z" fill="#666"/><path d="m5 19.5 11-11-1-1 5-5L18.5 1l-5 5-1-1-11 11c0 2.8 2.333 3.5 3.5 3.5Z" stroke="#666" stroke-linejoin="round"/><path d="m13.5 6 .75.75m.75.75-.75-.75m0 0L4.5 16.5m-2 2-1-2.5 3 .5m-2 2L5 19l-.5-2.5m-2 2 .965-.965M4.5 16.5l-1 1m0 0 1 1-1.035-.965M3.5 17.5l-.035.035m0 0L2 16.5l1.5.5-1 .5" stroke="#666" stroke-linejoin="round"/></g><defs><clipPath id="a"><path fill="#fff" transform="translate(0.5)" d="M0 0h20v20H0z"/></clipPath></defs></svg>