<svg width="20" height="20" fill="none" xmlns="http://www.w3.org/2000/svg"><path d="M7.114 13.932c.906-.197 1.51-1.006 1.452-1.868-.95-.394-1.807-1.18-2.495-2.294-.217-.352-.327-.782-.5-1.18L7.5 11 9 12l-.5 1.5-1.386.432Zm0 0c-.004 0-.008.002-.01.003a.52.52 0 0 0-.406.501v1.811h-.702c-.767 0-1.398.602-1.398 1.35v.986c0 .29.242.517.533.517h9.78c.29 0 .532-.228.532-.517v-.986c0-.748-.63-1.35-1.397-1.35h-.703v-1.811a.52.52 0 0 0-.409-.502l-.006-.002h-.002c-.913-.198-1.519-1.017-1.45-1.886.934-.4 1.775-1.177 2.453-2.276.214-.347.407-.718.577-1.109 1.894-1.002 3.229-2.814 3.575-4.867a1.354 1.354 0 0 0-.326-1.124 1.474 1.474 0 0 0-1.106-.494h-1.206v-.293c0-.546-.46-.983-1.016-.983H5.574c-.558 0-1.017.437-1.017.983v.293m2.557 11.756 1.452-.013.606-1.873L6 8.5 4.657 2.176h-.1m0 0H3.351c-.425 0-.829.18-1.106.494m2.312-.494v.1H3.351c-.397 0-.773.168-1.031.46m-.075-.066a1.354 1.354 0 0 0-.326 1.124c.346 2.053 1.844 3.9 3.738 4.902L3.5 6 2.32 2.736m-.075-.066.075.066m10.695 6.503.086.053m-.086-.053c-.836 1.356-1.91 2.08-3.015 2.08-1.105 0-2.18-.724-3.015-2.08-.877-1.421-1.363-3.325-1.363-5.363V1.933h8.756v1.943c0 2.038-.486 3.942-1.363 5.363ZM2.97 3.627a.338.338 0 0 1 .084-.285.396.396 0 0 1 .297-.133h1.206v.667c0 1.1.132 2.17.385 3.161-1.038-.877-1.749-2.086-1.972-3.41Zm6.202 10.08c.278-.418.433-.89.46-1.373a3.642 3.642 0 0 0 .778-.005c.033.586.255 1.14.618 1.59H9.017c.055-.068.107-.139.155-.212Zm4.874 3.573c.187 0 .332.146.332.317v.47H5.663v-.47c0-.17.146-.317.333-.317h8.05Zm-1.768-2.327v1.294H7.763v-1.294h4.515ZM17.03 3.627c-.223 1.324-.934 2.533-1.972 3.41a12.86 12.86 0 0 0 .385-3.161v-.667h1.206c.115 0 .223.05.297.133a.337.337 0 0 1 .084.285Z" stroke="#666" stroke-width=".2"/><path d="M17.68 2.736a1.374 1.374 0 0 0-1.031-.46h-1.306v-.393c0-.487-.411-.883-.916-.883H5.573c-.505 0-.916.396-.916.883v.393H3.351c-.397 0-.773.168-1.031.46a1.254 1.254 0 0 0-.303 1.041C2.36 5.81 3.687 7.604 5.572 8.59c.172.399.367.777.584 1.128.693 1.124 1.556 1.901 2.504 2.277.097.937-.55 1.824-1.525 2.036l-.005.001a.42.42 0 0 0-.332.405v1.911h-.802c-.716 0-1.298.56-1.298 1.25v.986c0 .23.194.417.433.417h9.78a.425.425 0 0 0 .432-.417v-.986c0-.69-.582-1.25-1.297-1.25h-.803v-1.911a.42.42 0 0 0-.332-.405l-.006-.001c-.981-.213-1.63-1.11-1.523-2.053.932-.382 1.779-1.152 2.462-2.26.217-.351.412-.73.584-1.128 1.884-.985 3.212-2.78 3.555-4.812a1.254 1.254 0 0 0-.303-1.041Zm-14.809.907a.438.438 0 0 1 .108-.367.496.496 0 0 1 .372-.167h1.306v.767c0 1.202.16 2.366.461 3.43-1.186-.902-2.002-2.214-2.247-3.663ZM14.046 17.18c.238 0 .432.187.432.417v.57H5.563v-.57c0-.23.194-.417.433-.417h8.05Zm-1.668-2.327v1.494H7.663v-1.494h4.715Zm-3.58-.833c.106-.114.204-.237.291-.368.288-.434.44-.927.446-1.43a3.58 3.58 0 0 0 .97-.006c.01.677.284 1.317.743 1.803h-2.45Zm5.68-10.144c0 2.052-.49 3.976-1.377 5.416-.847 1.372-1.948 2.127-3.1 2.127-1.154 0-2.255-.755-3.102-2.127-.888-1.44-1.377-3.364-1.377-5.416V1.883a.05.05 0 0 1 .051-.05h8.854a.05.05 0 0 1 .051.05v1.993Zm2.651-.233c-.245 1.45-1.061 2.76-2.247 3.663.302-1.064.461-2.228.461-3.43v-.767h1.306c.143 0 .28.061.372.167.092.104.13.234.108.367Z" fill="#666"/><path d="M12.53 5.277a.417.417 0 0 0-.337-.284l-1.257-.182-.562-1.14a.417.417 0 0 0-.748 0l-.562 1.14-1.257.182a.417.417 0 0 0-.23.711l.909.887-.215 1.252a.417.417 0 0 0 .605.439L10 7.69l1.124.59a.416.416 0 0 0 .605-.438l-.215-1.252.91-.887a.417.417 0 0 0 .105-.427Zm-1.754.87a.416.416 0 0 0-.12.369l.109.636-.571-.3a.416.416 0 0 0-.388 0l-.571.3.109-.636a.417.417 0 0 0-.12-.37l-.462-.45.639-.092a.417.417 0 0 0 .313-.228L10 4.797l.286.579c.06.123.178.208.313.228l.639.093-.462.45Z" fill="#666"/></svg>