<svg width="186" height="46" viewBox="0 0 186 46" fill="none" xmlns="http://www.w3.org/2000/svg">
<g filter="url(#filter0_d_1163_168)">
<path d="M185.985 22.2577C185.985 22.9041 185.943 23.5505 185.859 24.1968H170.219C170.303 25.4896 170.655 26.4592 171.273 27.1055C171.919 27.7238 172.734 28.033 173.718 28.033C175.095 28.033 176.079 27.4147 176.669 26.1781H185.479C185.114 27.8081 184.397 29.2695 183.329 30.5623C182.29 31.8269 180.969 32.8246 179.367 33.5553C177.765 34.286 175.994 34.6513 174.055 34.6513C171.723 34.6513 169.643 34.1595 167.816 33.1759C166.018 32.1923 164.598 30.7871 163.559 28.9604C162.547 27.1336 162.041 24.9837 162.041 22.5106C162.041 20.0375 162.547 17.9017 163.559 16.1031C164.57 14.2763 165.975 12.8712 167.774 11.8875C169.601 10.9039 171.695 10.4121 174.055 10.4121C176.388 10.4121 178.453 10.8899 180.252 11.8454C182.051 12.8009 183.456 14.178 184.468 15.9766C185.479 17.7471 185.985 19.8408 185.985 22.2577ZM177.554 20.1921C177.554 19.1804 177.217 18.3935 176.542 17.8314C175.868 17.2412 175.025 16.9462 174.013 16.9462C173.001 16.9462 172.172 17.2272 171.526 17.7893C170.88 18.3232 170.458 19.1242 170.261 20.1921H177.554Z" fill="#FFC107"/>
</g>
<g filter="url(#filter1_d_1163_168)">
<path d="M152.798 14.8802C153.725 13.5313 154.849 12.4633 156.17 11.6764C157.491 10.8895 158.91 10.4961 160.428 10.4961V19.3065H158.109C156.31 19.3065 154.976 19.6578 154.104 20.3604C153.233 21.063 152.798 22.2855 152.798 24.0279V34.3559H144.535V10.7069H152.798V14.8802Z" fill="#FFC107"/>
</g>
<path d="M140.618 22.5752C140.62 24.8228 139.954 27.0203 138.706 28.8896C137.458 30.7589 135.684 32.216 133.608 33.0767C131.532 33.9374 129.247 34.1629 127.043 33.7247C124.839 33.2866 122.814 32.2044 121.225 30.6152C119.636 29.0259 118.554 27.001 118.116 24.7965C117.677 22.592 117.903 20.3071 118.763 18.2307C119.623 16.1544 121.08 14.3799 122.949 13.1317C124.818 11.8835 127.015 11.2178 129.263 11.2188C132.274 11.22 135.161 12.4168 137.291 14.5463C139.42 16.6758 140.617 19.5636 140.618 22.5752Z" fill="url(#paint0_radial_1163_168)"/>
<path d="M137.401 17.4648C137.402 16.381 137.275 15.3008 137.02 14.2473C136.348 13.0846 135.587 12.5734 134.053 12.3027C134.334 13.4054 134.103 14.3476 134.103 15.5395C134.103 23.1874 127.98 29.5923 120.333 29.5923C120.476 29.9519 120.688 30.2796 120.958 30.5566C121.228 30.8336 121.551 31.0543 121.906 31.206C122.455 31.2732 123.007 31.3067 123.56 31.3061C127.23 31.3037 130.749 29.8447 133.344 27.2495C135.939 24.6543 137.398 21.1351 137.401 17.4648Z" fill="#EE484C"/>
<path d="M137.401 17.4629C137.402 16.379 137.275 15.2988 137.02 14.2453C136.348 13.0826 135.587 12.5714 134.053 12.3008C134.334 13.4034 134.103 14.3456 134.103 15.5375C134.103 23.1854 127.98 29.5903 120.333 29.5903C120.476 29.9499 120.688 30.2777 120.958 30.5546C121.228 30.8316 121.551 31.0523 121.906 31.204C122.455 31.2713 123.007 31.3047 123.56 31.3041C127.23 31.3018 130.749 29.8428 133.344 27.2476C135.939 24.6524 137.398 21.1332 137.401 17.4629Z" fill="url(#paint1_radial_1163_168)"/>
<mask id="mask0_1163_168" style="mask-type:luminance" maskUnits="userSpaceOnUse" x="117" y="11" width="24" height="23">
<path d="M137.035 14.2953L137.025 14.2493C136.36 13.0994 135.613 12.5872 134.128 12.3116C131.814 11.2144 129.196 10.9318 126.701 11.5096C124.205 12.0873 121.978 13.4916 120.381 15.4945C118.784 17.4974 117.91 19.9813 117.902 22.5431C117.894 25.1049 118.752 27.5942 120.337 29.6071C120.623 30.2924 121.152 30.8476 121.823 31.1658C124.07 33.1159 126.992 34.1066 129.962 33.9248C132.931 33.743 135.711 32.4033 137.703 30.1936C139.696 27.9839 140.742 25.0807 140.617 22.1078C140.492 19.1349 139.206 16.3298 137.035 14.2953Z" fill="white"/>
</mask>
<g mask="url(#mask0_1163_168)">
<path d="M120.797 30.676C120.597 30.676 120.393 30.6727 120.186 30.666L120.196 30.5958C120.396 30.6024 120.596 30.6058 120.796 30.6058C125.667 30.6058 130.377 28.3506 133.224 24.6218C135.91 21.1136 136.612 16.7433 135.219 12.313L135.289 12.293C136.692 16.7433 135.97 21.1336 133.284 24.6727C130.428 28.41 125.688 30.676 120.797 30.676Z" fill="black"/>
<path d="M130.207 23.7701C131.412 22.2473 132.277 20.4836 132.742 18.598C133.264 16.5937 133.454 14.2579 133.334 11.6719L133.124 11.6819C133.624 21.8156 129.125 27.4588 119.363 28.9422L119.393 29.1425C121.819 28.7716 123.964 28.1401 125.737 27.258C127.464 26.4356 128.989 25.2451 130.207 23.7701Z" fill="white"/>
<path d="M120.396 30.1042L120.416 30.3045C120.529 30.2978 120.643 30.2878 120.756 30.2744L120.736 30.0742C120.623 30.0809 120.509 30.0909 120.396 30.1042Z" fill="white"/>
<path d="M129.205 27.168C129.024 27.2883 128.834 27.4182 128.644 27.5289L128.754 27.7092C128.944 27.5889 129.135 27.4589 129.315 27.3383L129.205 27.168Z" fill="white"/>
<path d="M134.888 15.6718H135.099C135.099 15.4412 135.089 15.2106 135.079 14.9902L134.868 15.0002C134.882 15.2208 134.888 15.4447 134.888 15.6718Z" fill="white"/>
<path d="M127.482 28.1914C127.281 28.2915 127.081 28.3916 126.87 28.4821L126.96 28.6724C127.161 28.5723 127.371 28.4722 127.572 28.3721L127.482 28.1914Z" fill="white"/>
<path d="M133.855 21.9457L133.665 21.8555C133.579 22.0607 133.482 22.2612 133.374 22.4561L133.564 22.5562C133.665 22.356 133.762 22.1525 133.855 21.9457Z" fill="white"/>
<path d="M133.225 22.7578C133.114 22.9483 133.004 23.1487 132.884 23.3291L133.064 23.4394C133.174 23.249 133.295 23.0485 133.405 22.8581L133.225 22.7578Z" fill="white"/>
<path d="M128.353 27.709C128.162 27.8193 127.972 27.9296 127.771 28.0398L127.872 28.2202C128.072 28.1133 128.269 27.9997 128.463 27.8793L128.353 27.709Z" fill="white"/>
<path d="M126.65 28.8015L126.57 28.6211C126.369 28.7013 126.159 28.7914 125.948 28.8714L126.018 29.0617C126.232 28.9818 126.443 28.895 126.65 28.8015Z" fill="white"/>
<path d="M134.237 21.0038L134.046 20.9336L133.806 21.5551L133.996 21.6353C134.083 21.4215 134.163 21.2109 134.237 21.0038Z" fill="white"/>
<path d="M134.547 20.0308L134.347 19.9707C134.287 20.1913 134.226 20.4017 134.156 20.6122L134.347 20.6723C134.42 20.4585 134.487 20.2447 134.547 20.0308Z" fill="white"/>
<path d="M135.099 16.002H134.888C134.888 16.2292 134.882 16.453 134.868 16.6735L135.079 16.6835C135.085 16.4627 135.092 16.2355 135.099 16.002Z" fill="white"/>
<path d="M124.996 29.2029L125.066 29.4031C125.28 29.3364 125.494 29.2629 125.708 29.1826L125.638 28.9922C125.427 29.0624 125.217 29.1425 124.996 29.2029Z" fill="white"/>
<path d="M131.471 25.1934C131.321 25.3537 131.171 25.514 131.01 25.6745L131.15 25.8247C131.317 25.6643 131.474 25.5006 131.621 25.3335L131.471 25.1934Z" fill="white"/>
<path d="M134.787 17.6755L134.998 17.6955C135.018 17.4749 135.038 17.2511 135.058 17.0239L134.847 17.0039C134.837 17.2345 134.817 17.4544 134.787 17.6755Z" fill="white"/>
<path d="M134.646 18.6674L134.847 18.7074C134.887 18.4869 134.92 18.263 134.947 18.0359L134.747 18.0059C134.717 18.2264 134.687 18.4468 134.646 18.6674Z" fill="white"/>
<path d="M134.767 13.6545L134.967 13.6344C134.947 13.4139 134.917 13.1935 134.877 12.9629L134.677 12.9929C134.707 13.2132 134.737 13.4441 134.767 13.6545Z" fill="white"/>
<path d="M122.069 29.9035L122.099 30.1037C122.32 30.0737 122.55 30.0335 122.761 29.9834L122.731 29.7832C122.51 29.83 122.29 29.8701 122.069 29.9035Z" fill="white"/>
<path d="M123.051 29.7244L123.101 29.9246L123.762 29.7744L123.712 29.5742L123.051 29.7244Z" fill="white"/>
<path d="M134.857 14.6581L135.057 14.6481C135.047 14.4275 135.027 14.1976 135.007 13.9766L134.797 13.9966L134.857 14.6581Z" fill="white"/>
<path d="M134.787 19.0381L134.587 18.998C134.537 19.2186 134.487 19.439 134.437 19.6496L134.637 19.6996C134.69 19.4792 134.74 19.2587 134.787 19.0381Z" fill="white"/>
<path d="M121.738 29.9551C121.517 29.9884 121.294 30.0152 121.066 30.0353L121.086 30.2459C121.317 30.2159 121.537 30.1858 121.758 30.1556L121.738 29.9551Z" fill="white"/>
<path d="M130.007 26.5664C129.836 26.6967 129.656 26.837 129.476 26.9668L129.596 27.1372C129.783 27.0037 129.963 26.8667 130.137 26.7262L130.007 26.5664Z" fill="white"/>
<path d="M132.872 23.7297L132.702 23.6094C132.582 23.7965 132.455 23.98 132.321 24.16L132.482 24.2803C132.622 24.1 132.753 23.9164 132.872 23.7297Z" fill="white"/>
<path d="M132.121 24.4316C131.981 24.6054 131.84 24.7758 131.7 24.9429L131.85 25.0832C132 24.9128 132.141 24.7328 132.281 24.5519L132.121 24.4316Z" fill="white"/>
<path d="M124.033 29.4928L124.083 29.6833C124.304 29.6298 124.521 29.5697 124.735 29.503L124.675 29.3027C124.468 29.3692 124.254 29.4326 124.033 29.4928Z" fill="white"/>
<path d="M130.768 25.9062C130.608 26.06 130.441 26.207 130.268 26.3472L130.398 26.5076C130.572 26.3605 130.742 26.2104 130.909 26.0571L130.768 25.9062Z" fill="white"/>
<path d="M134.828 12.6241C134.815 12.5105 134.798 12.3969 134.778 12.2832L134.567 12.3132L134.627 12.6541L134.828 12.6241Z" fill="white"/>
<path d="M121.809 30.8887C121.695 30.8953 121.581 30.8987 121.468 30.8987V31.0989H121.809V30.8887Z" fill="white"/>
<path d="M136.852 17.9065L136.642 17.8965C136.632 18.1271 136.612 18.3576 136.592 18.5881L136.792 18.6081C136.822 18.3777 136.832 18.1371 136.852 17.9065Z" fill="white"/>
<path d="M134.747 24.5328C134.878 24.3326 134.998 24.1324 135.118 23.9321L134.938 23.832C134.828 24.0322 134.697 24.2325 134.577 24.4235L134.747 24.5328Z" fill="white"/>
<path d="M136.651 16.5143L136.851 16.5043C136.841 16.2737 136.831 16.0331 136.811 15.8027L136.601 15.8228C136.621 16.053 136.641 16.2839 136.651 16.5143Z" fill="white"/>
<path d="M136.751 18.9578L136.551 18.9277C136.521 19.1583 136.491 19.3889 136.451 19.6193L136.651 19.6493C136.692 19.4189 136.722 19.1883 136.751 18.9578Z" fill="white"/>
<path d="M136.571 15.4714L136.771 15.4513C136.751 15.2208 136.721 14.9902 136.691 14.7598L136.48 14.7898C136.514 15.017 136.544 15.2442 136.571 15.4714Z" fill="white"/>
<path d="M136.661 17.1342C136.661 17.2745 136.658 17.4115 136.651 17.5451L136.862 17.5551V16.8535H136.662L136.661 17.1342Z" fill="white"/>
<path d="M136.23 20.6344L136.431 20.6845C136.491 20.4539 136.541 20.2233 136.591 20.0029L136.38 19.9629C136.341 20.1835 136.291 20.4134 136.23 20.6344Z" fill="white"/>
<path d="M135.599 22.9985L135.419 22.9082C135.319 23.1188 135.208 23.3292 135.108 23.5297L135.289 23.6298C135.399 23.4194 135.499 23.2085 135.599 22.9985Z" fill="white"/>
<path d="M136.01 22.0273L135.819 21.957C135.739 22.1708 135.652 22.3847 135.559 22.5986L135.749 22.6788C135.84 22.4682 135.93 22.2477 136.01 22.0273Z" fill="white"/>
<path d="M136.431 14.4384L136.631 14.4084C136.598 14.1811 136.554 13.9506 136.501 13.7168L136.301 13.7568C136.347 13.984 136.391 14.2112 136.431 14.4384Z" fill="white"/>
<path d="M136.341 21.0249L136.141 20.9648C136.081 21.1921 136.011 21.4126 135.931 21.6264L136.131 21.6966C136.201 21.4761 136.271 21.2455 136.341 21.0249Z" fill="white"/>
<path d="M132.462 27.1892L132.332 27.0391C132.162 27.1892 131.982 27.3394 131.801 27.4895L131.931 27.6499C132.111 27.5002 132.292 27.3497 132.462 27.1892Z" fill="white"/>
<path d="M133.224 26.4567L133.074 26.3164C132.914 26.4833 132.75 26.647 132.583 26.8076L132.723 26.9578C132.893 26.7976 133.064 26.6271 133.224 26.4567Z" fill="white"/>
<path d="M129.886 29.0222L129.786 28.8418C129.586 28.9554 129.382 29.0623 129.175 29.1625L129.265 29.3428C129.479 29.2424 129.686 29.1355 129.886 29.0222Z" fill="white"/>
<path d="M128.955 29.5029L128.865 29.3125C128.654 29.4126 128.444 29.5029 128.233 29.5931L128.314 29.7835C128.524 29.6934 128.745 29.6031 128.955 29.5029Z" fill="white"/>
<path d="M130.788 28.4711L130.678 28.3008C130.484 28.4277 130.287 28.5513 130.087 28.6717L130.197 28.842C130.398 28.7317 130.598 28.6011 130.788 28.4711Z" fill="white"/>
<path d="M127.982 29.915L127.911 29.7246C127.691 29.8049 127.47 29.8849 127.261 29.9652L127.321 30.1556C127.541 30.0855 127.772 30.0052 127.982 29.915Z" fill="white"/>
<path d="M123.914 30.9469L123.884 30.7363C123.653 30.7664 123.423 30.7964 123.192 30.8164L123.212 31.0166C123.442 30.9969 123.683 30.9769 123.914 30.9469Z" fill="white"/>
<path d="M124.945 30.7783L124.915 30.5781L124.224 30.6984L124.254 30.8986C124.484 30.8588 124.724 30.8284 124.945 30.7783Z" fill="white"/>
<path d="M122.861 31.0459L122.851 30.8457C122.62 30.8557 122.39 30.8757 122.149 30.8757L122.159 31.0863C122.393 31.0796 122.627 31.0663 122.861 31.0463V31.0459Z" fill="white"/>
<path d="M126.99 30.2646L126.93 30.0742C126.71 30.1445 126.489 30.2045 126.259 30.2646L126.319 30.4648C126.539 30.4051 126.77 30.3348 126.99 30.2646Z" fill="white"/>
<path d="M133.925 25.6655L133.765 25.5352C133.618 25.7156 133.468 25.8926 133.314 26.0664L133.465 26.1967C133.624 26.0263 133.775 25.8458 133.925 25.6655Z" fill="white"/>
<path d="M134.557 24.8215L134.386 24.7012C134.256 24.8915 134.116 25.0821 133.976 25.2624L134.146 25.3927C134.286 25.2017 134.426 25.0118 134.557 24.8215Z" fill="white"/>
<path d="M125.977 30.5557L125.927 30.3555C125.707 30.4155 125.477 30.4658 125.256 30.5056L125.296 30.7162C125.526 30.6661 125.756 30.6057 125.977 30.5557Z" fill="white"/>
<path d="M131.079 28.2805C131.279 28.1502 131.47 28.0099 131.65 27.8696L131.53 27.6992C131.35 27.8395 131.159 27.9799 130.969 28.1102L131.079 28.2805Z" fill="white"/>
<path d="M136.431 13.3643L136.351 13.0234L136.15 13.0735L136.231 13.4144L136.431 13.3643Z" fill="white"/>
<path d="M131.14 24.2408C133.564 21.2236 134.517 17.1341 133.946 12.0723L133.746 12.1023C134.307 17.0939 133.375 21.1335 130.98 24.1103C128.625 27.0372 124.826 28.8413 119.986 29.3525L120.006 29.5527C122.422 29.3024 124.586 28.7308 126.441 27.8587C128.263 27.0277 129.871 25.7899 131.141 24.2403L131.14 24.2408Z" fill="white"/>
<path d="M133.785 27.1791C135.306 25.6313 136.433 23.7406 137.072 21.6663C137.794 19.3508 137.914 16.825 137.443 14.1387L137.243 14.1787C138.125 19.1905 136.842 23.7611 133.635 27.0388C130.508 30.2255 125.817 31.88 121.688 31.2485L121.658 31.4488C122.258 31.5427 122.865 31.5896 123.472 31.5891C127.17 31.5894 131.059 29.9553 133.785 27.1791Z" fill="white"/>
<path d="M137.924 14.5488L137.724 14.5889C138.606 19.6108 137.324 24.1713 134.116 27.4489C130.989 30.6356 126.299 32.2902 122.17 31.6587L122.14 31.8589C122.74 31.9512 123.346 31.9981 123.954 31.9992C127.652 31.9992 131.54 30.3653 134.256 27.5889C135.784 26.0444 136.915 24.1531 137.554 22.0764C138.275 19.761 138.395 17.235 137.924 14.5488Z" fill="white"/>
</g>
<g filter="url(#filter2_d_1163_168)">
<path d="M90.7803 22.5106C90.7803 20.0656 91.2861 17.9298 92.2979 16.1031C93.3096 14.2763 94.7148 12.8712 96.5134 11.8875C98.3401 10.9039 100.42 10.4121 102.752 10.4121C105.759 10.4121 108.289 11.2412 110.34 12.8993C112.392 14.5293 113.713 16.8197 114.303 19.7705H105.535C105.029 18.2249 104.045 17.452 102.584 17.452C101.544 17.452 100.715 17.8876 100.097 18.7588C99.5064 19.6019 99.2113 20.8525 99.2113 22.5106C99.2113 24.1687 99.5064 25.4334 100.097 26.3046C100.715 27.1758 101.544 27.6114 102.584 27.6114C104.073 27.6114 105.057 26.8386 105.535 25.2929H114.303C113.713 28.2156 112.392 30.5061 110.34 32.1642C108.289 33.8223 105.759 34.6513 102.752 34.6513C100.42 34.6513 98.3401 34.1595 96.5134 33.1759C94.7148 32.1923 93.3096 30.7871 92.2979 28.9604C91.2861 27.1336 90.7803 24.9837 90.7803 22.5106Z" fill="#FFC107"/>
</g>
<g filter="url(#filter3_d_1163_168)">
<path d="M77.2011 34.652C73.7443 34.652 70.9059 33.837 68.6857 32.207C66.4656 30.5489 65.2712 28.1882 65.1025 25.1249H73.913C73.9973 26.1648 74.3064 26.9235 74.8404 27.4013C75.3743 27.8791 76.0629 28.1179 76.906 28.1179C77.6648 28.1179 78.283 27.9353 78.7608 27.5699C79.2667 27.1765 79.5196 26.6425 79.5196 25.968C79.5196 25.0968 79.1121 24.4223 78.2971 23.9446C77.4821 23.4668 76.1612 22.9329 74.3345 22.3427C72.3954 21.6963 70.8216 21.078 69.6131 20.4879C68.4328 19.8696 67.393 18.9843 66.4937 17.8321C65.6225 16.6517 65.1868 15.1201 65.1868 13.2372C65.1868 11.3261 65.6646 9.69615 66.6201 8.34718C67.5756 6.97012 68.8965 5.93029 70.5827 5.2277C72.2689 4.52512 74.1799 4.17383 76.3158 4.17383C79.7725 4.17383 82.5267 4.98883 84.5782 6.61882C86.6579 8.22072 87.7679 10.483 87.9085 13.4058H78.9294C78.9013 12.5065 78.6203 11.832 78.0863 11.3824C77.5805 10.9327 76.92 10.7079 76.105 10.7079C75.4867 10.7079 74.9809 10.8905 74.5874 11.2559C74.194 11.6212 73.9973 12.1411 73.9973 12.8156C73.9973 13.3777 74.208 13.8695 74.6296 14.2911C75.0792 14.6845 75.6273 15.0358 76.2736 15.3449C76.92 15.626 77.8755 15.9913 79.1402 16.441C81.0231 17.0873 82.5688 17.7337 83.7773 18.3801C85.0138 18.9984 86.0677 19.8836 86.9389 21.0359C87.8382 22.16 88.2879 23.5933 88.2879 25.3357C88.2879 27.1062 87.8382 28.6941 86.9389 30.0992C86.0677 31.5044 84.789 32.6145 83.1028 33.4295C81.4447 34.2445 79.4774 34.652 77.2011 34.652Z" fill="#FFC107"/>
</g>
<path fill-rule="evenodd" clip-rule="evenodd" d="M57.1936 8.51534C55.7322 8.51534 54.5518 8.12189 53.6525 7.33499C52.7813 6.51999 52.3457 5.50827 52.3457 4.29982C52.3457 3.06327 52.7813 2.0375 53.6525 1.2225C54.5518 0.4075 55.7322 0 57.1936 0C58.6268 0 59.7791 0.4075 60.6503 1.2225C61.5496 2.0375 61.9992 3.06327 61.9992 4.29982C61.9992 5.50827 61.5496 6.51999 60.6503 7.33499C59.7791 8.12189 58.6268 8.51534 57.1936 8.51534ZM61.3248 36.675C61.3248 42.661 58.3177 45.654 52.3036 45.654H49.3105V38.6141H51.0811C51.7836 38.6141 52.2895 38.4736 52.5986 38.1925C52.9078 37.9115 53.0624 37.4478 53.0624 36.8014V10.7074H61.3248V36.675ZM49.6804 22.2577C49.6804 22.9041 49.6383 23.5505 49.554 24.1968H33.9144C33.9987 25.4896 34.35 26.4592 34.9683 27.1055C35.6147 27.7238 36.4297 28.0329 37.4133 28.0329C38.7904 28.0329 39.774 27.4147 40.3642 26.1781H49.1746C48.8092 27.8081 48.0926 29.2695 47.0247 30.5623C45.9848 31.8269 44.664 32.8246 43.0621 33.5553C41.4602 34.286 39.6897 34.6513 37.7505 34.6513C35.418 34.6513 33.3383 34.1595 31.5116 33.1759C29.713 32.1923 28.2937 30.7871 27.2539 28.9604C26.2422 27.1336 25.7363 24.9837 25.7363 22.5106C25.7363 20.0375 26.2422 17.9017 27.2539 16.1031C28.2656 14.2763 29.6708 12.8712 31.4694 11.8875C33.2961 10.9039 35.3899 10.4121 37.7505 10.4121C40.0831 10.4121 42.1487 10.8899 43.9473 11.8454C45.746 12.8009 47.1511 14.178 48.1629 15.9766C49.1746 17.7471 49.6804 19.8408 49.6804 22.2577ZM41.2494 20.1921C41.2494 19.1804 40.9122 18.3935 40.2377 17.8314C39.5632 17.2412 38.7201 16.9462 37.7084 16.9462C36.6967 16.9462 35.8676 17.2272 35.2212 17.7893C34.5749 18.3232 34.1533 19.1242 33.9566 20.1921H41.2494ZM24.0284 11.2129V4.63672H0V11.2129H7.84085V34.3561H16.1033V11.2129H24.0284Z" fill="#009270"/>
<path d="M2.89355 40.0884L49.3882 38.6133L49.3882 41.52L2.89355 40.0884Z" fill="#009270"/>
<path d="M12.8125 44.2238L49.6982 42.7921L49.6982 45.6555L12.8125 44.2238Z" fill="#129F53"/>
<defs>
<filter id="filter0_d_1163_168" x="162.041" y="10.4121" width="23.9443" height="25.2383" filterUnits="userSpaceOnUse" color-interpolation-filters="sRGB">
<feFlood flood-opacity="0" result="BackgroundImageFix"/>
<feColorMatrix in="SourceAlpha" type="matrix" values="0 0 0 0 0 0 0 0 0 0 0 0 0 0 0 0 0 0 127 0" result="hardAlpha"/>
<feOffset dy="1"/>
<feComposite in2="hardAlpha" operator="out"/>
<feColorMatrix type="matrix" values="0 0 0 0 0.0705882 0 0 0 0 0.623529 0 0 0 0 0.32549 0 0 0 1 0"/>
<feBlend mode="normal" in2="BackgroundImageFix" result="effect1_dropShadow_1163_168"/>
<feBlend mode="normal" in="SourceGraphic" in2="effect1_dropShadow_1163_168" result="shape"/>
</filter>
<filter id="filter1_d_1163_168" x="144.535" y="10.4961" width="15.8926" height="24.8594" filterUnits="userSpaceOnUse" color-interpolation-filters="sRGB">
<feFlood flood-opacity="0" result="BackgroundImageFix"/>
<feColorMatrix in="SourceAlpha" type="matrix" values="0 0 0 0 0 0 0 0 0 0 0 0 0 0 0 0 0 0 127 0" result="hardAlpha"/>
<feOffset dy="1"/>
<feComposite in2="hardAlpha" operator="out"/>
<feColorMatrix type="matrix" values="0 0 0 0 0.0705882 0 0 0 0 0.623529 0 0 0 0 0.32549 0 0 0 1 0"/>
<feBlend mode="normal" in2="BackgroundImageFix" result="effect1_dropShadow_1163_168"/>
<feBlend mode="normal" in="SourceGraphic" in2="effect1_dropShadow_1163_168" result="shape"/>
</filter>
<filter id="filter2_d_1163_168" x="90.7803" y="10.4121" width="23.5225" height="25.2383" filterUnits="userSpaceOnUse" color-interpolation-filters="sRGB">
<feFlood flood-opacity="0" result="BackgroundImageFix"/>
<feColorMatrix in="SourceAlpha" type="matrix" values="0 0 0 0 0 0 0 0 0 0 0 0 0 0 0 0 0 0 127 0" result="hardAlpha"/>
<feOffset dy="1"/>
<feComposite in2="hardAlpha" operator="out"/>
<feColorMatrix type="matrix" values="0 0 0 0 0.0705882 0 0 0 0 0.623529 0 0 0 0 0.32549 0 0 0 1 0"/>
<feBlend mode="normal" in2="BackgroundImageFix" result="effect1_dropShadow_1163_168"/>
<feBlend mode="normal" in="SourceGraphic" in2="effect1_dropShadow_1163_168" result="shape"/>
</filter>
<filter id="filter3_d_1163_168" x="65.1025" y="4.17383" width="23.1855" height="31.4785" filterUnits="userSpaceOnUse" color-interpolation-filters="sRGB">
<feFlood flood-opacity="0" result="BackgroundImageFix"/>
<feColorMatrix in="SourceAlpha" type="matrix" values="0 0 0 0 0 0 0 0 0 0 0 0 0 0 0 0 0 0 127 0" result="hardAlpha"/>
<feOffset dy="1"/>
<feComposite in2="hardAlpha" operator="out"/>
<feColorMatrix type="matrix" values="0 0 0 0 0.0705882 0 0 0 0 0.623529 0 0 0 0 0.32549 0 0 0 1 0"/>
<feBlend mode="normal" in2="BackgroundImageFix" result="effect1_dropShadow_1163_168"/>
<feBlend mode="normal" in="SourceGraphic" in2="effect1_dropShadow_1163_168" result="shape"/>
</filter>
<radialGradient id="paint0_radial_1163_168" cx="0" cy="0" r="1" gradientUnits="userSpaceOnUse" gradientTransform="translate(124.782 18.4677) scale(17.7678 17.7701)">
<stop offset="0.151" stop-color="#FA232B"/>
<stop offset="1" stop-color="#8C000B"/>
</radialGradient>
<radialGradient id="paint1_radial_1163_168" cx="0" cy="0" r="1" gradientUnits="userSpaceOnUse" gradientTransform="translate(131.158 21.8025) scale(14.7222 14.7276)">
<stop offset="0.151" stop-color="#FA232B"/>
<stop offset="1" stop-color="#8C000B"/>
</radialGradient>
</defs>
</svg>
