<svg width="32" height="32" fill="none" xmlns="http://www.w3.org/2000/svg"><circle cx="16" cy="16" r="16" fill="#D32F2F"/><path fill-rule="evenodd" clip-rule="evenodd" d="M23.138 8.862c.26.26.26.682 0 .943l-7.333 7.333a.667.667 0 0 1-.943-.943l7.333-7.333c.26-.26.683-.26.943 0Z" fill="#fff"/><path fill-rule="evenodd" clip-rule="evenodd" d="M23.138 8.862c.181.181.243.45.158.692l-4.667 13.333a.667.667 0 0 1-1.238.05l-2.563-5.765-5.765-2.563a.667.667 0 0 1 .05-1.238l13.334-4.667a.667.667 0 0 1 .691.158Zm-11.997 5.212 4.463 1.984c.151.067.272.187.339.338l1.983 4.463L21.58 10.42l-10.44 3.654Z" fill="#fff"/></svg>