<svg xmlns="http://www.w3.org/2000/svg" width="32" height="32" fill="none"><circle cx="16" cy="16" r="16" fill="#D32F2F"/><g fill="#fff" clip-path="url(#a)"><path d="M14.863 14.8c0 .663.51 1.2 1.137 1.2.628 0 1.137-.537 1.137-1.2s-.51-1.2-1.137-1.2c-.628 0-1.137.537-1.137 1.2M20.926 17.2c0 .663.51 1.2 1.137 1.2.628 0 1.137-.537 1.137-1.2s-.509-1.2-1.137-1.2-1.137.537-1.137 1.2M8.8 17.2c0 .663.509 1.2 1.137 1.2s1.137-.537 1.137-1.2-.51-1.2-1.137-1.2c-.628 0-1.137.537-1.137 1.2"/></g><defs><clipPath id="a"><path fill="#fff" d="M24 8v16H8V8z"/></clipPath></defs></svg>