<svg width="25" height="36" fill="none" xmlns="http://www.w3.org/2000/svg"><path d="M16.67 27.823c.76-1.73 1.037-2.435 1.45-3.47-2.864-1.323-4.842-2.258-8.437-3.581-1.433-.51-.72-.254-1.475-.515-.235-.082-.96-.318-1.494-.473-1.493-.434-1.858-.611-2.179-.171a.635.635 0 0 0 .143.885c.214.157.432.296.652.45.682.438.735.474 1.326.84.146.084.9.538 1.35.792 2.347 1.326 3.992 2.148 6.427 3.273-.342.906-.698 1.914-1.305 3.617.801.225 5.165 1.478 8.127 1.833.683.085.982-.841.385-1.18-1.287-.74-3.577-1.733-4.97-2.3Z" fill="url(#a)"/><path d="M23.433 24.12c-2.547-1.891-7.582-6.024-13.746-11.781-.236.563.005-.004-1.414 3.37-3.847-4.366-3.603-4.113-6.247-7.264C1.458 7.751.894 7.062.34 6.351c-.157-.2-.193-.477-.071-.661.142-.213.436-.221.654-.02.657.592 1.292 1.198 1.936 1.806a214.803 214.803 0 0 1 4.536 4.486c.214-.573.002-.009 1.259-3.312 7.426 6.506 12.802 11.938 15.29 14.718.429.475-.006 1.125-.51.751Z" fill="url(#b)"/><defs><linearGradient id="a" x1="18.257" y1="33.351" x2="8.132" y2="17.273" gradientUnits="userSpaceOnUse"><stop stop-color="#FF5405"/><stop offset=".181" stop-color="#FF6705"/><stop offset=".501" stop-color="#FF8205"/><stop offset=".784" stop-color="#FF9205"/><stop offset="1" stop-color="#FF9805"/></linearGradient><linearGradient id="b" x1="5.009" y1="2.825" x2="19.303" y2="26.915" gradientUnits="userSpaceOnUse"><stop stop-color="#FF9805"/><stop offset=".216" stop-color="#FF9205"/><stop offset=".499" stop-color="#FF8205"/><stop offset=".819" stop-color="#FF6705"/><stop offset="1" stop-color="#FF5405"/></linearGradient></defs></svg>